<svg width="33" height="33" viewBox="0 0 33 33" fill="none" xmlns="http://www.w3.org/2000/svg">
<path d="M19.0781 23.5898C19.4341 23.5898 19.7227 23.3013 19.7227 22.9453C19.7227 22.5893 19.4341 22.3008 19.0781 22.3008C18.7222 22.3008 18.4336 22.5893 18.4336 22.9453C18.4336 23.3013 18.7222 23.5898 19.0781 23.5898Z" fill="white"/>
<path d="M16.5 17.1445C16.856 17.1445 17.1445 16.856 17.1445 16.5C17.1445 16.144 16.856 15.8555 16.5 15.8555C16.144 15.8555 15.8555 16.144 15.8555 16.5C15.8555 16.856 16.144 17.1445 16.5 17.1445Z" fill="white"/>
<path d="M16.5 23.5898C16.856 23.5898 17.1445 23.3013 17.1445 22.9453C17.1445 22.5893 16.856 22.3008 16.5 22.3008C16.144 22.3008 15.8555 22.5893 15.8555 22.9453C15.8555 23.3013 16.144 23.5898 16.5 23.5898Z" fill="white"/>
<path d="M13.9219 23.5898C14.2778 23.5898 14.5664 23.3013 14.5664 22.9453C14.5664 22.5893 14.2778 22.3008 13.9219 22.3008C13.5659 22.3008 13.2773 22.5893 13.2773 22.9453C13.2773 23.3013 13.5659 23.5898 13.9219 23.5898Z" fill="white"/>
<path d="M16.5 0C7.60289 0 0 7.58684 0 16.5V17.7891C0 18.145 0.288557 18.4336 0.644531 18.4336H3.10387C3.25566 19.4836 3.53513 20.5177 3.93789 21.5202L2.13669 22.5599C1.98864 22.6453 1.88055 22.7861 1.83633 22.9512C1.79205 23.1164 1.81526 23.2923 1.90072 23.4404L3.18979 25.673C3.3678 25.9813 3.76187 26.0868 4.07021 25.909L5.87587 24.8667C6.53774 25.7061 7.29403 26.4624 8.1334 27.1243L7.09113 28.9299C6.91318 29.2382 7.01882 29.6323 7.3271 29.8103L9.55975 31.0994C9.8679 31.2773 10.2623 31.1718 10.4402 30.8634L11.4799 29.0622C12.4824 29.4651 13.5165 29.7445 14.5665 29.8963V32.3555C14.5665 32.7114 14.8551 33 15.2111 33H17.7892C18.1452 33 18.4337 32.7114 18.4337 32.3555V29.8961C19.4837 29.7443 20.5178 29.4649 21.5203 29.0621L22.56 30.8633C22.7378 31.1715 23.1322 31.2772 23.4405 31.0993L25.6732 29.8102C25.9814 29.6323 26.087 29.2381 25.9091 28.9298L24.8669 27.1241C25.7062 26.4623 26.4625 25.706 27.1244 24.8666L28.93 25.9089C29.2383 26.0868 29.6325 25.9812 29.8105 25.6729L31.0995 23.4402C31.2774 23.1321 31.1719 22.7376 30.8636 22.5598L29.0624 21.5201C29.4652 20.5176 29.7446 19.4835 29.8964 18.4335H32.3555C32.7114 18.4335 33 18.1449 33 17.7889V16.4999C33 7.61159 25.4197 0 16.5 0V0ZM3.0844 9.49884L5.01381 10.6129C5.32073 10.79 5.71551 10.6866 5.89424 10.377C6.07226 10.0687 5.96662 9.67448 5.65834 9.49652L3.74415 8.39135C4.95219 6.54019 6.54695 4.95122 8.39373 3.7484L9.49652 5.65834C9.67532 5.9681 10.0702 6.07142 10.377 5.89424C10.6852 5.71628 10.7909 5.32209 10.6129 5.01381L9.50194 3.08969C11.4397 2.04349 13.6022 1.40708 15.8555 1.30447V3.60938C15.8555 3.96535 16.144 4.25391 16.5 4.25391C16.856 4.25391 17.1445 3.96535 17.1445 3.60938V1.30447C19.3978 1.40708 21.5603 2.04349 23.4981 3.08969L22.3871 5.01381C22.2091 5.32209 22.3148 5.71628 22.623 5.89424C22.93 6.07142 23.3247 5.96797 23.5035 5.65834L24.6062 3.7484C26.453 4.95122 28.0477 6.54012 29.2557 8.39135L27.3417 9.49652C27.0334 9.67448 26.9277 10.0687 27.1058 10.377C27.2846 10.6867 27.6794 10.79 27.9862 10.6129L29.9155 9.49897C30.7574 11.0573 31.335 12.7676 31.5793 14.5664H27.2857C26.3779 9.50142 21.9697 5.54297 16.5 5.54297C11.1749 5.54297 6.63551 9.38379 5.71371 14.5664H1.42068C1.66489 12.7676 2.24245 11.0572 3.0844 9.49884ZM31.7109 17.1445H29.3255C28.9942 17.1445 28.7169 17.3957 28.6842 17.7254C28.5552 19.0252 28.2098 20.3045 27.6578 21.5278C27.5216 21.8296 27.6363 22.1856 27.9231 22.3511L29.6606 23.3541L29.0161 24.4703L27.2752 23.4655C26.9887 23.3001 26.6238 23.3783 26.4303 23.6465C25.6561 24.7195 24.7194 25.6561 23.6464 26.4304C23.3783 26.6238 23.3001 26.9889 23.4654 27.2753L24.4703 29.0162L23.354 29.6607L22.3511 27.9232C22.1855 27.6363 21.8296 27.5216 21.5277 27.6579C20.3045 28.2099 19.0251 28.5552 17.7254 28.6842C17.3956 28.717 17.1445 28.9943 17.1445 29.3256V31.7109H15.8554V29.3255C15.8554 28.9942 15.6042 28.7169 15.2745 28.6842C13.9747 28.5552 12.6954 28.2098 11.4721 27.6578C11.1704 27.5216 10.8143 27.6363 10.6488 27.9231L9.64586 29.6606L8.5296 29.0161L9.53449 27.2752C9.69981 26.9888 9.62156 26.6238 9.35344 26.4303C8.28042 25.6561 7.34379 24.7194 6.56958 23.6464C6.37609 23.3782 6.01116 23.3 5.72466 23.4654L3.98378 24.4703L3.33925 23.354L5.07678 22.3511C5.3636 22.1855 5.47826 21.8296 5.34207 21.5277C4.79003 20.3045 4.44469 19.0251 4.31572 17.7254C4.2831 17.3957 4.00576 17.1445 3.67447 17.1445H1.28906V16.5C1.28906 16.2852 1.29422 16.0698 1.30389 15.8548H5.5623C5.54987 16.0699 5.54297 16.2852 5.54297 16.5C5.54297 22.5417 10.4583 27.457 16.5 27.457C18.3486 27.457 20.1761 26.9879 21.7852 26.1004C22.0969 25.9285 22.2102 25.5365 22.0382 25.2248C21.8662 24.9131 21.4742 24.7999 21.1625 24.9717C19.7437 25.7543 18.1314 26.168 16.5 26.168C11.1691 26.168 6.83203 21.8309 6.83203 16.5C6.83203 11.156 11.1722 6.83203 16.5 6.83203C18.8286 6.83203 21.0316 7.6502 22.7813 9.14989L17.0817 13.3299C16.8905 13.2949 16.6958 13.2773 16.5 13.2773C14.723 13.2773 13.2773 14.723 13.2773 16.5C13.2773 18.277 14.723 19.7227 16.5 19.7227C18.277 19.7227 19.7227 18.277 19.7227 16.5C19.7227 16.3042 19.7051 16.1095 19.6701 15.9183L23.8495 10.2196C25.2863 11.9037 26.168 14.1051 26.168 16.5C26.168 18.1314 25.7543 19.7437 24.9717 21.1625C24.7998 21.4742 24.913 21.8662 25.2247 22.0381C25.5363 22.21 25.9284 22.0969 26.1004 21.7851C26.9879 20.1761 27.457 18.3486 27.457 16.5C27.457 16.2852 27.4502 16.0699 27.4377 15.8555H31.696C31.7058 16.0698 31.7109 16.2852 31.7109 16.5V17.1445H31.7109ZM18.3563 15.9569C18.4076 16.1324 18.4336 16.3151 18.4336 16.5C18.4336 17.5662 17.5662 18.4336 16.5 18.4336C15.4338 18.4336 14.5664 17.5662 14.5664 16.5C14.5664 15.4338 15.4338 14.5664 16.5 14.5664C16.6849 14.5664 16.8676 14.5924 17.0431 14.6437C17.2355 14.7 17.4433 14.6633 17.605 14.5448L20.7942 12.2057L18.4552 15.395C18.3367 15.5567 18.3001 15.7644 18.3563 15.9569Z" fill="white"/>
<path d="M23.7832 24.4277C24.1392 24.4277 24.4277 24.1392 24.4277 23.7832C24.4277 23.4272 24.1392 23.1387 23.7832 23.1387C23.4272 23.1387 23.1387 23.4272 23.1387 23.7832C23.1387 24.1392 23.4272 24.4277 23.7832 24.4277Z" fill="white"/>
</svg>
