<svg width="33" height="33" viewBox="0 0 33 33" fill="none" xmlns="http://www.w3.org/2000/svg">
<path d="M12.1861 20.8133C11.9975 20.6247 11.6917 20.6247 11.5031 20.8133L5.32115 26.9953C5.13253 27.1839 5.13253 27.4897 5.32115 27.6783C5.41542 27.7726 5.53906 27.8197 5.66264 27.8197C5.78621 27.8197 5.90985 27.7726 6.00413 27.6783L12.1861 21.4963C12.3747 21.3077 12.3747 21.0019 12.1861 20.8133Z" fill="white"/>
<path d="M26.6005 21.3623L20.5925 15.3543L31.779 4.16759C31.8816 4.06514 31.9596 3.94453 32.0109 3.80923L32.9329 1.37856C33.0766 0.999591 32.9878 0.586043 32.7012 0.299483C32.4146 0.012923 32.0011 -0.0758784 31.622 0.067788L29.1917 0.989675C29.0561 1.041 28.9355 1.11905 28.8332 1.22137L25.6425 4.41204C25.4539 4.60072 25.4539 4.90647 25.6425 5.09508C25.8312 5.28357 26.1369 5.2837 26.3255 5.09508L29.5165 1.90416C29.5213 1.89933 29.5274 1.8954 29.534 1.89289L31.9645 0.970936C31.9753 0.966879 31.9951 0.95928 32.0181 0.982462C32.0412 1.00552 32.0336 1.02535 32.0296 1.03597L31.1076 3.46684C31.1052 3.47328 31.1013 3.47927 31.0962 3.48429L18.2572 16.3233L16.6773 14.7433L24.9595 6.46117C25.1481 6.27249 25.1481 5.96674 24.9595 5.77813C24.7709 5.58964 24.4652 5.58951 24.2765 5.77813L17.6463 12.4082L11.6329 6.39478C11.8087 4.64856 11.206 2.95065 9.95878 1.70331C8.58548 0.330071 6.62612 -0.265523 4.7175 0.110675C4.34632 0.1837 4.04746 0.453517 3.93748 0.814583C3.8282 1.17372 3.92537 1.56189 4.19106 1.82765L6.77964 4.41623C6.79322 4.42981 6.79792 4.44958 6.79181 4.46781L6.22603 6.16508C6.221 6.18002 6.20916 6.19193 6.19415 6.19689L4.49694 6.76267C4.47878 6.76872 4.45895 6.76409 4.4453 6.7505L1.85686 4.16206C1.59103 3.89623 1.20273 3.79906 0.843206 3.9084C0.482591 4.01807 0.21316 4.31622 0.140071 4.68649C-0.236707 6.59563 0.358565 8.5557 1.73238 9.92958C2.98526 11.1825 4.68517 11.7869 6.42926 11.6091L10.5537 15.7335C10.535 15.7504 10.5159 15.7669 10.4981 15.7847L4.44111 21.8418C4.2525 22.0305 4.2525 22.3362 4.44111 22.5248C4.53539 22.6191 4.65903 22.6662 4.7826 22.6662C4.90624 22.6662 5.02982 22.6191 5.12409 22.5248L9.16942 18.4794C9.16948 18.4794 9.16948 18.4794 9.16955 18.4794C9.39712 18.2517 9.76752 18.2517 9.99516 18.4793C10.1054 18.5896 10.1662 18.7362 10.1662 18.8922C10.1662 19.0481 10.1055 19.1947 9.99523 19.3049L3.81326 25.487C3.58562 25.7146 3.21521 25.7146 2.98764 25.487C2.8774 25.3767 2.81661 25.2301 2.81661 25.0742C2.81661 24.9185 2.8772 24.7721 2.98713 24.6619L3.75305 23.896C3.94166 23.7073 3.94166 23.4016 3.75305 23.213C3.5645 23.0244 3.25868 23.0244 3.07 23.213L0.795939 25.487C0.503262 25.7796 0.34208 26.1688 0.34208 26.5828C0.34208 26.8387 0.403835 27.0849 0.51994 27.305C-0.239927 28.3013 -0.16555 29.7346 0.744423 30.6445L2.35618 32.2563C2.85209 32.7521 3.50345 33.0001 4.15481 33.0001C4.69876 33.0001 5.24232 32.8265 5.69567 32.4808C5.91564 32.5969 6.16195 32.6586 6.4178 32.6586C6.83173 32.6586 7.22094 32.4974 7.51362 32.2047L17.2159 22.5025C17.2337 22.4846 17.2502 22.4656 17.267 22.447L21.3969 26.5768C21.221 28.323 21.8238 30.0209 23.071 31.2682C24.1733 32.3704 25.6529 32.9715 27.1808 32.9715C27.5566 32.9715 27.9355 32.9351 28.3122 32.8608C28.6834 32.7877 28.9823 32.5181 29.0922 32.1569C29.2015 31.7977 29.1043 31.4095 28.8386 31.1438L26.2501 28.5553C26.2364 28.5417 26.2317 28.5219 26.2378 28.5036L26.8036 26.8064C26.8086 26.7914 26.8205 26.7795 26.8355 26.7745L28.5328 26.2088C28.5511 26.2027 28.5708 26.2074 28.5844 26.2209L31.1729 28.8094C31.4386 29.0753 31.8271 29.1724 32.1864 29.063C32.5471 28.9534 32.8166 28.6552 32.8896 28.2849C33.2664 26.3758 32.6711 24.4157 31.2973 23.0418C30.0444 21.7889 28.3443 21.1843 26.6005 21.3623ZM16.7843 20.8849L12.1157 16.2164L13.5606 16.01L16.9907 19.4402L16.7843 20.8849ZM13.3055 14.3889C13.293 14.3764 13.293 14.3559 13.3055 14.3434L14.0856 13.5634C14.0919 13.557 14.1001 13.554 14.1084 13.554C14.1167 13.554 14.1249 13.5571 14.1312 13.5634L19.4372 18.8694C19.4498 18.8819 19.4498 18.9024 19.4372 18.9149L18.6571 19.695C18.6448 19.7075 18.6242 19.7076 18.6117 19.695L13.3055 14.3889ZM6.53558 10.6231C5.01108 10.8422 3.50931 10.3405 2.41542 9.2466C1.26983 8.10094 0.773465 6.46613 1.08778 4.8735C1.08965 4.86403 1.09409 4.84175 1.12436 4.83248C1.15269 4.82391 1.16699 4.83808 1.17388 4.84504L3.76245 7.43361C4.03645 7.70742 4.435 7.80163 4.8025 7.67902L6.49964 7.11324C6.80153 7.01259 7.04185 6.77233 7.14244 6.47051L7.70822 4.7733C7.8307 4.40573 7.73662 4.00712 7.46268 3.73318L4.87411 1.14461C4.86677 1.13733 4.85312 1.12368 4.86162 1.09586C4.87102 1.06489 4.89517 1.06012 4.90425 1.05832C6.49643 0.744585 8.13059 1.24107 9.2758 2.38635C10.364 3.47457 10.8639 4.97473 10.647 6.50219C10.6257 6.65255 10.6763 6.80414 10.7838 6.91155L16.9633 13.0912L15.9943 14.0602L14.8143 12.8802C14.4251 12.491 13.7919 12.491 13.4027 12.8802L12.6226 13.6603C12.2334 14.0495 12.2334 14.6827 12.6226 15.0719L12.7068 15.156L11.513 15.3266L6.94584 10.7595C6.83817 10.6521 6.68607 10.6015 6.53558 10.6231ZM3.03916 31.5732L1.4274 29.9614C1.12944 29.6635 0.965299 29.2673 0.965299 28.8458C0.965299 28.5649 1.03826 28.2951 1.17529 28.0581L4.94217 31.825C4.33924 32.172 3.55413 32.0881 3.03916 31.5732ZM6.4178 31.6926C6.2619 31.6926 6.11527 31.6319 6.00496 31.5216L1.47898 26.9956C1.47892 26.9956 1.47892 26.9956 1.47885 26.9955C1.36867 26.8852 1.30801 26.7387 1.30801 26.5828C1.30801 26.4269 1.36874 26.2803 1.47898 26.1701L1.97315 25.6759C2.04863 25.8556 2.15855 26.024 2.3046 26.1701C2.60674 26.4721 3.00355 26.6232 3.40042 26.6232C3.79729 26.6232 4.19416 26.4721 4.49623 26.1701L10.6782 19.988C10.9709 19.6954 11.1321 19.3062 11.1321 18.8922C11.1321 18.4782 10.9709 18.089 10.6782 17.7963C10.5343 17.6525 10.3671 17.5406 10.1851 17.4638L11.091 16.5579L16.4426 21.9095L15.5368 22.8153C15.46 22.6333 15.3482 22.4661 15.2043 22.3222C14.9116 22.0296 14.5224 21.8683 14.1084 21.8683C13.6945 21.8683 13.3053 22.0296 13.0126 22.3222L6.83057 28.5043C6.22641 29.1085 6.22641 30.0917 6.83064 30.696C6.97669 30.842 7.14515 30.952 7.32481 31.0274L6.83057 31.5216C6.72033 31.6319 6.5737 31.6926 6.4178 31.6926ZM8.33923 30.013C8.11166 30.2405 7.74125 30.2406 7.51362 30.013C7.28598 29.7854 7.28598 29.4149 7.51355 29.1873L13.6956 23.0053C13.8058 22.895 13.9525 22.8343 14.1084 22.8343C14.2643 22.8343 14.411 22.895 14.5212 23.0053C14.6314 23.1156 14.6922 23.2622 14.6922 23.4181C14.6922 23.5741 14.6315 23.7207 14.5213 23.8309L8.33923 30.013ZM31.9419 28.0979C31.9401 28.1075 31.9357 28.1297 31.9054 28.139C31.877 28.1476 31.8629 28.1334 31.8559 28.1264L29.2673 25.5378C28.9932 25.264 28.5947 25.1698 28.2273 25.2924L26.5301 25.8582C26.2282 25.9589 25.9879 26.1991 25.8873 26.501L25.3216 28.1982C25.1991 28.5657 25.2932 28.9643 25.5671 29.2383L28.1557 31.8269C28.163 31.8342 28.1767 31.8478 28.1682 31.8756C28.1588 31.9066 28.1347 31.9114 28.1256 31.9132C26.5338 32.2267 24.8993 31.7304 23.754 30.5852C22.6658 29.4969 22.166 27.9968 22.3828 26.4693C22.4041 26.319 22.3535 26.1674 22.2462 26.06L17.674 21.4878L17.8445 20.294L17.9287 20.3782C18.1234 20.5728 18.3789 20.67 18.6345 20.67C18.8901 20.67 19.1456 20.5727 19.3403 20.3782L20.1204 19.5981C20.5095 19.2089 20.5095 18.5757 20.1204 18.1865L18.9404 17.0065L19.9094 16.0374L26.0839 22.2119C26.1915 22.3195 26.3433 22.3699 26.4942 22.3485C28.0184 22.1295 29.5204 22.631 30.6143 23.7249C31.76 24.8706 32.2562 26.5054 31.9419 28.0979Z" fill="white"/>
<path d="M8.7161 7.93243L7.96177 8.68676C7.77316 8.87544 7.77316 9.18119 7.96177 9.3698C8.05605 9.46408 8.17969 9.51121 8.30326 9.51121C8.42684 9.51121 8.55048 9.46408 8.64475 9.3698L9.39908 8.61547C9.58769 8.42679 9.58769 8.12104 9.39908 7.93243C9.21047 7.74388 8.90465 7.74388 8.7161 7.93243Z" fill="white"/>
<path d="M24.3831 23.6004L23.6288 24.3547C23.4402 24.5434 23.4402 24.8492 23.6288 25.0378C23.7231 25.132 23.8467 25.1792 23.9703 25.1792C24.0939 25.1792 24.2175 25.132 24.3119 25.0378L25.0662 24.2834C25.2548 24.0948 25.2548 23.789 25.0662 23.6004C24.8775 23.4118 24.5717 23.4118 24.3831 23.6004Z" fill="white"/>
</svg>
