<svg width="32" height="30" viewBox="0 0 32 30" fill="none" xmlns="http://www.w3.org/2000/svg">
<path d="M5.1566 9.34375V11.1927L4.27637 12.0729L5.00559 12.8021L7.3259 10.4818C7.43433 10.3734 7.58139 10.3125 7.73473 10.3125C7.88807 10.3125 8.03513 10.3734 8.14356 10.4818C8.25198 10.5902 8.3129 10.7373 8.3129 10.8906C8.3129 11.044 8.25198 11.191 8.14356 11.2995L5.82324 13.6198C5.77536 13.6676 5.73738 13.7245 5.71146 13.787C5.68555 13.8496 5.67221 13.9167 5.67221 13.9844C5.67221 14.0521 5.68555 14.1191 5.71146 14.1817C5.73738 14.2443 5.77536 14.3011 5.82324 14.349C6.27284 14.7997 6.52532 15.4103 6.52532 16.0469C6.52532 16.6835 6.27284 17.2941 5.82324 17.7448L3.24512 20.3229L3.97434 21.0521L5.1566 19.8698V23.7812C5.15722 24.3281 5.37471 24.8523 5.76137 25.239C6.14804 25.6256 6.67228 25.8431 7.2191 25.8438H19.0785V24.8125H9.79723V23.7812H19.0785V22.75H7.2191C6.9457 22.7497 6.68359 22.6409 6.49026 22.4476C6.29693 22.2543 6.18818 21.9922 6.18785 21.7188V18.8386L6.55247 18.474C7.13289 17.8933 7.48608 17.1239 7.54801 16.3052C7.60995 15.4865 7.37653 14.6728 6.89007 14.0114L8.87278 12.0287C9.17246 11.7264 9.3402 11.3177 9.33929 10.8921C9.33837 10.4664 9.16888 10.0584 8.86789 9.75746C8.56691 9.45648 8.15895 9.28698 7.7333 9.28607C7.30764 9.28515 6.89896 9.45289 6.59668 9.75258L6.18785 10.1614V4.1875C6.18818 3.91409 6.29693 3.65198 6.49026 3.45865C6.68359 3.26533 6.9457 3.15657 7.2191 3.15625H28.8754C29.1488 3.15657 29.4109 3.26533 29.6042 3.45865C29.7975 3.65198 29.9063 3.91409 29.9066 4.1875V18.625H30.9379V4.1875C30.9372 3.64068 30.7197 3.11643 30.3331 2.72977C29.9464 2.34311 29.4222 2.12561 28.8754 2.125H7.2191C6.67228 2.12561 6.14804 2.34311 5.76137 2.72977C5.37471 3.11643 5.15722 3.64068 5.1566 4.1875V8.3125H3.60973C3.06291 8.31311 2.53866 8.53061 2.152 8.91727C1.76534 9.30393 1.54784 9.82818 1.54723 10.375V14.8021L0.666992 15.6823L1.39621 16.4115L2.42747 15.3802C2.47534 15.3324 2.51332 15.2755 2.53924 15.2129C2.56515 15.1504 2.57848 15.0833 2.57848 15.0156V10.375C2.5788 10.1016 2.68756 9.83948 2.88088 9.64615C3.07421 9.45283 3.33632 9.34407 3.60973 9.34375H5.1566ZM7.2191 23.7812H8.76598V24.8125H7.2191C6.9457 24.8122 6.68359 24.7034 6.49026 24.5101C6.29693 24.3168 6.18818 24.0547 6.18785 23.7812V23.5041C6.50108 23.686 6.8569 23.7816 7.2191 23.7812Z" fill="white"/>
<path d="M29.9071 19.6562C29.7314 19.6562 29.557 19.6862 29.3914 19.7449V19.6562C29.3917 19.386 29.321 19.1205 29.1866 18.8861C29.0522 18.6517 28.8587 18.4566 28.6254 18.3204C28.3921 18.1841 28.1271 18.1113 27.8569 18.1093C27.5867 18.1074 27.3208 18.1763 27.0855 18.3092C26.8979 18.0143 26.6159 17.7918 26.2855 17.678C25.9551 17.5641 25.5958 17.5657 25.2664 17.6824V17.0781C25.2664 16.6679 25.1035 16.2744 24.8134 15.9843C24.5233 15.6942 24.1298 15.5312 23.7196 15.5312C23.3093 15.5312 22.9159 15.6942 22.6258 15.9843C22.3357 16.2744 22.1727 16.6679 22.1727 17.0781V21.4001L21.6327 21.6701C21.2013 21.8856 20.8341 22.2107 20.5679 22.6128C20.3017 23.0149 20.1457 23.4798 20.1157 23.9611C20.0857 24.4424 20.1826 24.9232 20.3968 25.3552C20.611 25.7873 20.935 26.1554 21.3362 26.4229L22.7428 27.3607C22.8847 27.4549 23.001 27.5828 23.0815 27.7328C23.1619 27.8829 23.204 28.0505 23.2039 28.2208V29.9688H24.2352V28.2208C24.2354 27.8808 24.1515 27.546 23.991 27.2463C23.8305 26.9466 23.5984 26.6913 23.3152 26.503L22.458 25.9297L21.9081 25.5649C21.5362 25.3172 21.2753 24.9345 21.1806 24.4978C21.086 24.0611 21.165 23.6047 21.401 23.2252C21.5682 22.9535 21.8084 22.7342 22.0942 22.5923L22.1729 22.5529V24.2969H23.2042V17.0781C23.2042 16.9414 23.2585 16.8102 23.3552 16.7135C23.4519 16.6168 23.5831 16.5625 23.7198 16.5625C23.8566 16.5625 23.9877 16.6168 24.0844 16.7135C24.1811 16.8102 24.2354 16.9414 24.2354 17.0781V21.2031H25.2667V19.1406C25.2667 19.0039 25.321 18.8727 25.4177 18.776C25.5144 18.6793 25.6456 18.625 25.7823 18.625C25.9191 18.625 26.0502 18.6793 26.1469 18.776C26.2436 18.8727 26.2979 19.0039 26.2979 19.1406V21.7188H27.3292V19.6562C27.3292 19.5195 27.3835 19.3883 27.4802 19.2916C27.5769 19.1949 27.7081 19.1406 27.8448 19.1406C27.9816 19.1406 28.1127 19.1949 28.2094 19.2916C28.3061 19.3883 28.3604 19.5195 28.3604 19.6562V22.2344H29.3917V21.2031C29.3917 21.0664 29.446 20.9352 29.5427 20.8385C29.6394 20.7418 29.7706 20.6875 29.9073 20.6875C30.0441 20.6875 30.1752 20.7418 30.2719 20.8385C30.3686 20.9352 30.4229 21.0664 30.4229 21.2031V23.0222C30.4213 24.4584 30.0869 25.8747 29.4462 27.1601C29.4103 27.2316 29.3915 27.3106 29.3914 27.3906V29.9688H30.4227V27.5106C31.0996 26.1111 31.4521 24.5768 31.4539 23.0222V21.2031C31.4535 20.793 31.2903 20.3998 31.0003 20.1098C30.7103 19.8199 30.3172 19.6567 29.9071 19.6562Z" fill="white"/>
<path d="M23.3564 7.58594C22.9786 7.58594 22.6093 7.69796 22.2952 7.90784C21.9811 8.11772 21.7363 8.41604 21.5917 8.76505C21.4471 9.11407 21.4093 9.49813 21.483 9.86864C21.5567 10.2392 21.7386 10.5795 22.0057 10.8466C22.2729 11.1138 22.6132 11.2957 22.9837 11.3694C23.3542 11.4431 23.7383 11.4052 24.0873 11.2607C24.4363 11.1161 24.7346 10.8713 24.9445 10.5572C25.1544 10.2431 25.2664 9.87378 25.2664 9.49601C25.2659 8.9896 25.0644 8.50409 24.7064 8.14601C24.3483 7.78792 23.8628 7.5865 23.3564 7.58594ZM23.3564 10.3748C23.1825 10.3748 23.0126 10.3233 22.8681 10.2267C22.7236 10.1302 22.611 9.9929 22.5444 9.83232C22.4779 9.67173 22.4605 9.49503 22.4944 9.32456C22.5283 9.15408 22.612 8.99749 22.7349 8.87459C22.8578 8.75168 23.0144 8.66798 23.1849 8.63407C23.3554 8.60016 23.5321 8.61757 23.6927 8.68408C23.8532 8.7506 23.9905 8.86324 24.0871 9.00776C24.1836 9.15228 24.2352 9.32219 24.2352 9.49601C24.2349 9.72901 24.1422 9.95239 23.9775 10.1171C23.8127 10.2819 23.5894 10.3746 23.3564 10.3748Z" fill="white"/>
<path d="M28.1892 8.62919C28.2682 8.55785 28.3232 8.46379 28.3467 8.35993C28.3701 8.25606 28.3608 8.14749 28.3201 8.04912L27.8893 7.0091C27.849 6.91041 27.7789 6.82676 27.6888 6.76982C27.5987 6.71288 27.493 6.6855 27.3866 6.69148L26.4134 6.74111L26.1104 6.43818L26.1601 5.46493C26.1656 5.35859 26.138 5.25317 26.0811 5.16315C26.0242 5.07313 25.9408 5.00294 25.8424 4.9622L24.8024 4.53152C24.7041 4.49072 24.5955 4.48138 24.4916 4.50481C24.3877 4.52824 24.2937 4.58328 24.2223 4.66236L23.5696 5.38546H23.1411L22.4885 4.66256C22.4171 4.58353 22.3231 4.52852 22.2192 4.50509C22.1154 4.48167 22.0068 4.49097 21.9084 4.53172L20.8684 4.96239C20.77 5.00314 20.6867 5.07334 20.6298 5.16336C20.5729 5.25337 20.5453 5.35879 20.5508 5.46513L20.6004 6.43837L20.2975 6.7413L19.3242 6.69167C19.2178 6.68559 19.1121 6.71294 19.0219 6.76989C18.9318 6.82684 18.8617 6.91055 18.8215 7.00929L18.3908 8.04931C18.3501 8.14768 18.3408 8.25625 18.3642 8.36011C18.3876 8.46397 18.4426 8.55804 18.5217 8.62939L19.2448 9.28217V9.71065L18.5219 10.3632C18.4428 10.4346 18.3878 10.5287 18.3644 10.6325C18.341 10.7364 18.3503 10.845 18.391 10.9433L18.8217 11.9833C18.8621 12.082 18.9322 12.1655 19.0223 12.2225C19.1124 12.2794 19.218 12.3069 19.3244 12.301L20.2977 12.2513L20.6006 12.5543L20.551 13.5275C20.5455 13.6338 20.5731 13.7393 20.63 13.8293C20.6869 13.9193 20.7702 13.9895 20.8686 14.0302L21.9086 14.461C22.007 14.5017 22.1156 14.511 22.2194 14.4876C22.3233 14.4641 22.4173 14.4091 22.4887 14.3301L23.1415 13.607H23.57L24.2227 14.3301C24.2941 14.4091 24.3881 14.4641 24.492 14.4876C24.5959 14.511 24.7044 14.5017 24.8028 14.461L25.8428 14.0302C25.9412 13.9895 26.0246 13.9193 26.0815 13.8293C26.1383 13.7393 26.166 13.6338 26.1605 13.5275L26.1108 12.5543L26.4138 12.2513L27.387 12.301C27.4934 12.3067 27.5989 12.2791 27.6889 12.2222C27.779 12.1653 27.8491 12.0818 27.8897 11.9833L28.3205 10.9433C28.3612 10.8449 28.3705 10.7364 28.3471 10.6325C28.3236 10.5286 28.2686 10.4346 28.1896 10.3632L27.4665 9.71046V9.28198L28.1892 8.62919ZM26.605 10.3224L27.2281 10.8849L27.0758 11.2523L26.2374 11.2095C26.1654 11.2059 26.0934 11.2174 26.026 11.2432C25.9587 11.2691 25.8975 11.3088 25.8465 11.3598L25.2194 11.9869C25.1684 12.038 25.1286 12.0991 25.1027 12.1664C25.0769 12.2338 25.0654 12.3058 25.0691 12.3779L25.1119 13.2163L24.7445 13.3685L24.182 12.7454C24.1336 12.6919 24.0746 12.6491 24.0087 12.6198C23.9427 12.5905 23.8714 12.5753 23.7992 12.5753H22.9123C22.8402 12.5753 22.7689 12.5905 22.7029 12.6198C22.637 12.6491 22.578 12.6919 22.5296 12.7454L21.9671 13.3685L21.5997 13.2163L21.6425 12.3779C21.6462 12.3058 21.6347 12.2338 21.6089 12.1664C21.583 12.0991 21.5432 12.0379 21.4922 11.9869L20.8651 11.3598C20.8141 11.3088 20.7529 11.2691 20.6856 11.2432C20.6182 11.2173 20.5462 11.2059 20.4741 11.2095L19.6358 11.2523L19.4835 10.8849L20.1066 10.3224C20.1601 10.2741 20.203 10.215 20.2323 10.1491C20.2616 10.0832 20.2767 10.0118 20.2767 9.93965V9.05278C20.2767 8.98063 20.2616 8.90929 20.2323 8.84336C20.2029 8.77744 20.1601 8.7184 20.1066 8.67006L19.4835 8.10751L19.6358 7.74013L20.4741 7.78293C20.5462 7.78665 20.6182 7.77519 20.6856 7.7493C20.7529 7.72341 20.8141 7.68366 20.8651 7.63262L21.4922 7.00556C21.5432 6.95453 21.5829 6.89337 21.6088 6.82602C21.6347 6.75867 21.6462 6.68664 21.6425 6.61458L21.5997 5.77624L21.9671 5.62394L22.5296 6.24701C22.578 6.30057 22.637 6.34339 22.7029 6.3727C22.7688 6.40201 22.8402 6.41716 22.9123 6.41716H23.7992C23.8714 6.41716 23.9427 6.40202 24.0087 6.37271C24.0746 6.3434 24.1337 6.30058 24.182 6.24701L24.7445 5.62394L25.1119 5.77624L25.0691 6.61458C25.0654 6.68664 25.0768 6.75867 25.1027 6.82602C25.1286 6.89337 25.1684 6.95453 25.2194 7.00556L25.8465 7.63262C25.8975 7.68363 25.9587 7.72336 26.026 7.74925C26.0933 7.77514 26.1654 7.78661 26.2374 7.78293L27.0758 7.74013L27.2281 8.10751L26.605 8.67006C26.5514 8.7184 26.5086 8.77745 26.4793 8.84337C26.45 8.9093 26.4349 8.98064 26.4349 9.05278V9.93965C26.4349 10.0118 26.45 10.0832 26.4793 10.1491C26.5086 10.215 26.5514 10.2741 26.605 10.3224Z" fill="white"/>
<path d="M8.76562 19.6562V20.6875H20.1094V19.6562H19.0781V18.1094H18.0469V19.6562H17.0156V17.0781H15.9844V19.6562H14.9531V15.5312H13.9219V19.6562H12.8906V17.0781H11.8594V19.6562H10.8281V18.1094H9.79688V19.6562H8.76562Z" fill="white"/>
<path d="M9.28125 5.21875H10.3125V6.25H9.28125V5.21875Z" fill="white"/>
<path d="M11.3438 5.21875H16.5V6.25H11.3438V5.21875Z" fill="white"/>
<path d="M8.25 7.28125H16.5V8.3125H8.25V7.28125Z" fill="white"/>
<path d="M10.3125 9.34375H16.5V10.375H10.3125V9.34375Z" fill="white"/>
<path d="M10.3125 11.4062H15.4688V12.4375H10.3125V11.4062Z" fill="white"/>
<path d="M9.79688 0.0625H23.2031V1.09375H9.79688V0.0625Z" fill="white"/>
<path d="M24.2344 0.0625H25.2656V1.09375H24.2344V0.0625Z" fill="white"/>
</svg>
