<svg width="33" height="33" viewBox="0 0 33 33" fill="none" xmlns="http://www.w3.org/2000/svg">
<path d="M30.9375 5.67188H20.625C19.7722 5.67188 19.0781 6.36591 19.0781 7.21875V8.76562H12.8906L17.0156 3.26545V0.515625H3.60938V3.26545L7.73438 8.76562H2.0625C1.20966 8.76562 0.515625 9.45966 0.515625 10.3125V24.75C0.515625 25.4213 0.948234 25.9885 1.54688 26.202V29.0725C1.22977 29.435 1.03125 29.9037 1.03125 30.4219C1.03125 31.5593 1.95628 32.4844 3.09375 32.4844C4.23122 32.4844 5.15625 31.5593 5.15625 30.4219C5.15625 29.9037 4.95773 29.435 4.64062 29.072V26.2969H13.9219V29.072C13.6048 29.4345 13.4062 29.9032 13.4062 30.4219C13.4062 31.5593 14.3313 32.4844 15.4688 32.4844C16.6062 32.4844 17.5312 31.5593 17.5312 30.4219C17.5312 29.9037 17.3327 29.435 17.0156 29.072V26.2969H28.3594V29.072C28.0423 29.4345 27.8438 29.9032 27.8438 30.4219C27.8438 31.5593 28.7688 32.4844 29.9062 32.4844C31.0437 32.4844 31.9688 31.5593 31.9688 30.4219C31.9688 29.9037 31.7702 29.435 31.4531 29.072V26.202C32.0518 25.9885 32.4844 25.4213 32.4844 24.75V7.21875C32.4844 6.36591 31.7903 5.67188 30.9375 5.67188ZM20.625 6.70312H30.9375C31.2216 6.70312 31.4531 6.93464 31.4531 7.21875V7.73438H20.1094V7.21875C20.1094 6.93464 20.3409 6.70312 20.625 6.70312ZM19.0781 14.9531H16.7594C16.1447 13.1154 14.4679 11.6877 12.375 11.1102V9.79688H19.0781V14.9531ZM5.67188 25.2656V21.1406H14.9531V25.2656H5.67188ZM2.0625 25.2656C1.77839 25.2656 1.54688 25.0346 1.54688 24.75V18.0469H5.67188V20.1094H4.64062V25.2656H2.0625ZM11.3438 9.79688V10.8998C11.006 10.8549 10.6626 10.8281 10.3125 10.8281C9.96291 10.8281 9.61898 10.8549 9.28125 10.8998V9.79688H11.3438ZM10.3125 11.8594C10.6636 11.8594 11.0081 11.8872 11.3438 11.9383V14.9531H9.28125V11.9383C9.61692 11.8872 9.96136 11.8594 10.3125 11.8594ZM12.375 14.9531V12.1822C13.8878 12.6684 15.1006 13.6728 15.6554 14.9531H12.375ZM8.76562 20.1094V18.0469H11.8594V20.1094H8.76562ZM7.73438 15.9844V17.0156H6.70312V15.9844H7.73438ZM7.73438 18.0469V20.1094H6.70312V18.0469H7.73438ZM8.76562 17.0156V15.9844H11.8594V17.0156H8.76562ZM8.25 14.9531H4.96959C5.52441 13.6733 6.73767 12.6689 8.25 12.1827V14.9531ZM5.67188 15.9844V17.0156H1.54688V15.9844H5.67188ZM12.8906 20.1094V18.0469H13.9219V20.1094H12.8906ZM12.8906 17.0156V15.9844H13.9219V17.0156H12.8906ZM14.9531 15.9844H19.0781V17.0156H14.9531V15.9844ZM4.64062 2.92205V1.54688H15.9844V2.92205L11.6016 8.76562H9.02344L4.64062 2.92205ZM2.0625 9.79688H8.25V11.1102C6.15759 11.6877 4.48027 13.1154 3.86564 14.9531H1.54688V10.3125C1.54688 10.0284 1.77839 9.79688 2.0625 9.79688ZM3.09375 31.4531C2.52502 31.4531 2.0625 30.9906 2.0625 30.4219C2.0625 29.8531 2.52502 29.3906 3.09375 29.3906C3.66248 29.3906 4.125 29.8531 4.125 30.4219C4.125 30.9906 3.66248 31.4531 3.09375 31.4531ZM3.60938 28.4326C3.44334 28.3893 3.27267 28.3594 3.09375 28.3594C2.91483 28.3594 2.74416 28.3893 2.57812 28.4326V26.2969H3.60938V28.4326ZM15.4688 31.4531C14.9 31.4531 14.4375 30.9906 14.4375 30.4219C14.4375 29.8531 14.9 29.3906 15.4688 29.3906C16.0375 29.3906 16.5 29.8531 16.5 30.4219C16.5 30.9906 16.0375 31.4531 15.4688 31.4531ZM15.9844 28.4326C15.8183 28.3893 15.6477 28.3594 15.4688 28.3594C15.2898 28.3594 15.1192 28.3893 14.9531 28.4326V26.2969H15.9844V28.4326ZM15.9844 25.2656V20.1094H14.9531V18.0469H19.0781V25.2656H15.9844ZM30.4219 26.2969V28.4326C30.2558 28.3893 30.0852 28.3594 29.9062 28.3594C29.7273 28.3594 29.5567 28.3893 29.3906 28.4326V26.2969H30.4219ZM29.9062 31.4531C29.3375 31.4531 28.875 30.9906 28.875 30.4219C28.875 29.8531 29.3375 29.3906 29.9062 29.3906C30.475 29.3906 30.9375 29.8531 30.9375 30.4219C30.9375 30.9906 30.475 31.4531 29.9062 31.4531ZM30.9375 25.2656H20.1094V8.76562H31.4531V24.75C31.4531 25.0346 31.2216 25.2656 30.9375 25.2656Z" fill="white"/>
<path d="M21.1406 17.0156H30.4219V9.79688H21.1406V17.0156ZM22.1719 15.9844V12.8906H23.4001L24.6861 15.4626L26.0571 13.4062H29.3906V15.9844H22.1719ZM29.3906 10.8281V12.375H25.5054L24.8139 13.4124L24.0374 11.8594H22.1719V10.8281H29.3906Z" fill="white"/>
<path d="M24.75 18.0469C23.8972 18.0469 23.2031 18.7409 23.2031 19.5938C23.2031 20.4466 23.8972 21.1406 24.75 21.1406C25.6028 21.1406 26.2969 20.4466 26.2969 19.5938C26.2969 18.7409 25.6028 18.0469 24.75 18.0469ZM24.75 20.1094C24.4659 20.1094 24.2344 19.8784 24.2344 19.5938C24.2344 19.3091 24.4659 19.0781 24.75 19.0781C25.0341 19.0781 25.2656 19.3091 25.2656 19.5938C25.2656 19.8784 25.0341 20.1094 24.75 20.1094Z" fill="white"/>
<path d="M28.875 18.0469C28.0222 18.0469 27.3281 18.7409 27.3281 19.5938C27.3281 20.4466 28.0222 21.1406 28.875 21.1406C29.7278 21.1406 30.4219 20.4466 30.4219 19.5938C30.4219 18.7409 29.7278 18.0469 28.875 18.0469ZM28.875 20.1094C28.5909 20.1094 28.3594 19.8784 28.3594 19.5938C28.3594 19.3091 28.5909 19.0781 28.875 19.0781C29.1591 19.0781 29.3906 19.3091 29.3906 19.5938C29.3906 19.8784 29.1591 20.1094 28.875 20.1094Z" fill="white"/>
</svg>
