<svg width="33" height="33" viewBox="0 0 33 33" fill="none" xmlns="http://www.w3.org/2000/svg">
<g clip-path="url(#clip0_401_220)">
<path d="M16.4676 1.93164C13.3025 1.93164 10.7275 4.50655 10.7275 7.67162C10.7275 10.8367 13.3025 13.4117 16.4676 13.4117C19.6327 13.4117 22.2076 10.8367 22.2076 7.67162C22.2076 4.50655 19.6327 1.93164 16.4676 1.93164ZM16.4676 12.4456C13.8352 12.4456 11.6936 10.304 11.6936 7.67162C11.6936 5.03932 13.8352 2.89774 16.4676 2.89774C19.0999 2.89774 21.2415 5.03932 21.2415 7.67162C21.2415 10.304 19.0999 12.4456 16.4676 12.4456Z" fill="white"/>
<path d="M18.7707 6.15567H17.999V5.38395C17.999 4.95468 17.6497 4.60547 17.2204 4.60547H15.781C15.3517 4.60547 15.0024 4.95468 15.0024 5.38395V6.15567H14.2307C13.8014 6.15567 13.4521 6.50495 13.4521 6.93421V8.3737C13.4521 8.80297 13.8014 9.15225 14.2307 9.15225H15.0024V9.92396C15.0024 10.3532 15.3517 10.7024 15.781 10.7024H17.2204C17.6497 10.7024 17.999 10.3532 17.999 9.92396V9.15225H18.7707C19.2 9.15225 19.5492 8.80297 19.5492 8.3737V6.93421C19.5492 6.50495 19.2 6.15567 18.7707 6.15567ZM18.5832 8.18615H17.5159C17.2491 8.18615 17.0329 8.40236 17.0329 8.6692V9.73635H15.9686V8.6692C15.9686 8.40236 15.7524 8.18615 15.4855 8.18615H14.4183V7.12183H15.4855C15.7524 7.12183 15.9686 6.90562 15.9686 6.63878V5.57157H17.0329V6.63872C17.0329 6.90555 17.2491 7.12177 17.5159 7.12177H18.5832V8.18615Z" fill="white"/>
<path d="M32.565 17.8875C32.3701 17.5592 32.0446 17.3227 31.6721 17.2387C30.9739 17.0812 30.2673 17.1373 29.6297 17.3757L27.647 9.45991C27.6434 9.44555 27.6391 9.43144 27.6342 9.41747C27.3602 8.63589 26.5919 8.12425 25.7647 8.17365C25.3692 8.19722 24.9949 8.34639 24.6935 8.59358L24.5967 8.07523C24.529 7.72853 24.362 7.40843 24.1215 7.15254C24.0766 6.48117 23.9458 5.82165 23.7283 5.18621C23.6418 4.9338 23.3672 4.79945 23.1148 4.88569C22.8624 4.97212 22.7278 5.24675 22.8143 5.49916C23.0532 6.19688 23.1743 6.92802 23.1743 7.67211C23.1743 11.3589 20.1837 14.3601 16.501 14.3779C16.5008 14.3779 16.5006 14.3779 16.5004 14.3779C16.5002 14.3779 16.4999 14.3779 16.4996 14.3779C16.4891 14.3779 16.4787 14.3783 16.4682 14.3783C12.7705 14.3783 9.76216 11.3699 9.76216 7.67211C9.76216 3.97447 12.7705 0.966099 16.4682 0.966099C18.6326 0.966099 20.6756 2.01992 21.9335 3.78517C22.0882 4.00235 22.3899 4.05311 22.6072 3.89821C22.8245 3.74344 22.8751 3.44176 22.7202 3.22452C21.2815 1.20543 18.9442 0 16.4682 0C12.386 0 9.03855 3.205 8.80907 7.2308C8.60509 7.47297 8.46552 7.76138 8.40331 8.07916L8.30728 8.59351C8.00592 8.34638 7.63165 8.19722 7.23613 8.17365C6.4105 8.12502 5.64058 8.63576 5.3666 9.4174C5.36177 9.43131 5.35745 9.44548 5.35391 9.45978L4.86809 11.3995C4.8033 11.6584 4.96058 11.9206 5.2193 11.9855C5.47828 12.0505 5.74041 11.8931 5.80527 11.6343L6.2851 9.71837C6.42261 9.35248 6.78844 9.1154 7.17868 9.13801C7.43895 9.15353 7.67087 9.27506 7.8317 9.4802C7.99252 9.68533 8.05519 9.93948 8.00811 10.1958C8.00656 10.2044 8.00521 10.213 8.00405 10.2215L6.98939 18.1358C6.95551 18.4004 7.14248 18.6424 7.40706 18.6764C7.42793 18.6791 7.44867 18.6804 7.46915 18.6804C7.70855 18.6804 7.91639 18.5025 7.94769 18.2588L8.96062 10.3579L9.07738 9.73248C9.39291 10.8629 9.96143 11.8887 10.7178 12.745L10.1364 18.4844C10.1096 18.7499 10.3029 18.9868 10.5683 19.0137C10.5849 19.0154 10.6013 19.0162 10.6176 19.0162C10.8625 19.0162 11.0724 18.8307 11.0976 18.5818L11.6023 13.5994C12.0803 13.9926 12.6066 14.3291 13.1707 14.5987L13.0726 19.4049C13.0671 19.6716 13.2789 19.8922 13.5457 19.8976C13.5491 19.8978 13.5524 19.8978 13.5557 19.8978C13.8178 19.8978 14.0331 19.6879 14.0384 19.4246L14.1292 14.9793C14.73 15.1721 15.3628 15.2926 16.0173 15.3308V22.5625V24.1044C16.0173 24.9277 15.7357 25.7365 15.2243 26.3818L13.5317 28.5172C13.4641 28.6026 13.4273 28.7083 13.4273 28.8172V32.5167C13.4273 32.7835 13.6435 32.9997 13.9103 32.9997C14.1772 32.9997 14.3934 32.7835 14.3934 32.5167V28.9854L15.9814 26.9818C16.1835 26.7269 16.3571 26.4517 16.5004 26.1621C16.6437 26.4517 16.8174 26.7269 17.0194 26.9818L18.6075 28.9854V32.5167C18.6075 32.7835 18.8237 32.9997 19.0905 32.9997C19.3574 32.9997 19.5736 32.7835 19.5736 32.5167V28.8174C19.5736 28.7085 19.5368 28.6028 19.4691 28.5174L17.7766 26.382C17.2652 25.7366 16.9836 24.9279 16.9836 24.1045V22.5627V15.3267C17.6385 15.283 18.2712 15.157 18.8713 14.9586L18.9625 19.4246C18.9679 19.688 19.183 19.8978 19.4452 19.8978C19.4486 19.8978 19.4519 19.8978 19.4553 19.8977C19.722 19.8923 19.9338 19.6716 19.9283 19.4049L19.8296 14.5679C20.393 14.2921 20.9178 13.9492 21.3937 13.5498L21.9034 18.5819C21.9286 18.8308 22.1385 19.0164 22.3834 19.0164C22.3996 19.0164 22.4161 19.0155 22.4327 19.0139C22.6981 18.9869 22.8914 18.75 22.8646 18.4846L22.2765 12.6795C23.0351 11.8009 23.5981 10.749 23.8973 9.59207L24.0405 10.3591L25.0532 18.2589C25.0845 18.5026 25.2923 18.6805 25.5318 18.6805C25.5523 18.6805 25.573 18.6792 25.5939 18.6766C25.8585 18.6426 26.0455 18.4006 26.0115 18.1359L24.9969 10.2216C24.9957 10.213 24.9944 10.2044 24.9928 10.1959C24.9458 9.93961 25.0084 9.6854 25.1692 9.48026C25.3301 9.27506 25.562 9.15359 25.8223 9.13807C26.2143 9.11585 26.5783 9.35261 26.7158 9.71857L28.7532 17.8531C28.4485 18.0796 28.1761 18.357 27.9497 18.681L25.9763 21.5062L25.3069 21.6072C24.121 21.7859 23.129 22.597 22.718 23.724L22.5919 24.0697C22.5006 24.3203 22.6297 24.5976 22.8803 24.6889C22.935 24.7089 22.9908 24.7183 23.0457 24.7183C23.243 24.7183 23.4281 24.5965 23.4996 24.4006L23.6256 24.0548C23.9154 23.2603 24.6148 22.6884 25.4511 22.5624L26.3256 22.4304C26.4565 22.4107 26.5737 22.3379 26.6495 22.2294L28.7417 19.2341C29.3524 18.3598 30.4193 17.9465 31.4595 18.1811C31.5759 18.2073 31.6735 18.2783 31.7344 18.3808C31.7953 18.4833 31.8109 18.603 31.7783 18.7177L31.1668 20.8686C31.0939 21.1252 31.2428 21.3924 31.4994 21.4654C31.756 21.5383 32.0231 21.3894 32.0961 21.1328L32.7076 18.9819C32.812 18.6147 32.7601 18.2157 32.565 17.8875Z" fill="white"/>
<path d="M31.1826 22.5773C30.9257 22.504 30.6587 22.6532 30.5858 22.9098L30.2928 23.9405C29.9914 25.0006 29.1992 25.8744 28.1738 26.278L27.5109 26.5389C27.0583 26.7171 26.7808 27.179 26.8361 27.6622L27.3978 32.571C27.426 32.8174 27.6349 32.9991 27.877 32.9991C27.8954 32.9991 27.9139 32.9981 27.9325 32.9959C28.1976 32.9656 28.3878 32.7262 28.3576 32.4611L27.7959 27.5523C27.7903 27.503 27.8185 27.456 27.8646 27.4378L28.5275 27.1769C29.8315 26.6637 30.8388 25.5526 31.222 24.2047L31.515 23.1739C31.5881 22.9173 31.4391 22.6502 31.1826 22.5773Z" fill="white"/>
<path d="M10.2827 23.7243C9.87168 22.5975 8.87968 21.7864 7.6937 21.6075L7.02432 21.5066L5.05091 18.6813C4.82458 18.3573 4.55214 18.08 4.24737 17.8535L5.30473 13.6317C5.36953 13.3729 5.21224 13.1106 4.95352 13.0458C4.69467 12.9812 4.43247 13.1383 4.36755 13.397L3.37093 17.3763C2.73317 17.1378 2.02657 17.0817 1.32859 17.2391C0.956065 17.3231 0.630554 17.5596 0.435596 17.8878C0.240572 18.2161 0.188596 18.6151 0.293064 18.9823L1.77809 24.2059C2.16124 25.5539 3.16856 26.6651 4.47247 27.1781L5.13547 27.4391C5.18159 27.4573 5.2098 27.5043 5.20419 27.5535L4.6425 32.4623C4.61217 32.7273 4.80243 32.9668 5.06752 32.9971C5.0862 32.9993 5.10469 33.0004 5.12304 33.0004C5.36521 33.0004 5.57415 32.8185 5.60229 32.5722L6.16398 27.6634C6.21924 27.1802 5.94184 26.7183 5.48926 26.5402L4.82619 26.2793C3.80078 25.8756 3.00864 25.0019 2.70728 23.9418L1.22226 18.7182C1.18967 18.6035 1.20519 18.4837 1.26618 18.3813C1.32705 18.2787 1.42469 18.2078 1.54113 18.1815C2.58137 17.9469 3.6482 18.3602 4.2589 19.2346L6.35108 22.23C6.42695 22.3385 6.54404 22.4112 6.67505 22.431L7.54956 22.5629C8.38569 22.689 9.08521 23.2608 9.37497 24.0553L9.50108 24.4011C9.59241 24.6517 9.86961 24.781 10.1203 24.6894C10.371 24.5981 10.5001 24.3208 10.4087 24.0702L10.2827 23.7243Z" fill="white"/>
</g>
<defs>
<clipPath id="clip0_401_220">
<rect width="33" height="33" fill="white"/>
</clipPath>
</defs>
</svg>
