<svg width="33" height="31" viewBox="0 0 33 31" fill="none" xmlns="http://www.w3.org/2000/svg">
<path d="M32.3555 0.675781H27.1992C26.8432 0.675781 26.5547 0.964402 26.5547 1.32031V1.96484H24.2158C24.0449 1.96484 23.8809 2.03278 23.7601 2.15363L20.9877 4.92601C20.16 4.67697 19.2828 4.54303 18.375 4.54303C18.019 4.54303 17.7305 4.83165 17.7305 5.18756V13.625C17.7305 13.9809 18.019 14.2695 18.375 14.2695H26.8125C27.1685 14.2695 27.457 13.9809 27.457 13.625C27.457 10.0224 25.3485 6.90298 22.3008 5.43603L24.4828 3.25391H26.5547V3.89844C26.5547 4.25435 26.8433 4.54297 27.1993 4.54297H32.3555C32.7115 4.54297 33 4.25435 33 3.89844V1.32031C33 0.964402 32.7114 0.675781 32.3555 0.675781ZM26.1415 12.9805H19.0195V5.85846C22.8038 6.16951 25.8304 9.1961 26.1415 12.9805ZM31.7109 3.25391H27.8437V1.96484H31.7109V3.25391Z" fill="white"/>
<path d="M32.3555 26.4565H27.1992C26.8433 26.4565 26.5547 26.7452 26.5547 27.1011V27.7456H24.4828L20.7822 24.045C22.5797 22.3845 23.707 20.0087 23.707 17.3745C23.707 17.0186 23.4184 16.73 23.0625 16.73H15.2695V8.93715C15.2695 8.58124 14.981 8.29262 14.625 8.29262C13.7683 8.29262 12.9389 8.41186 12.1526 8.63461L9.23996 5.72198C9.11911 5.60113 8.95515 5.5332 8.78422 5.5332H6.44529V4.88867C6.44529 4.53276 6.15673 4.24414 5.80076 4.24414H0.644529C0.288556 4.24414 0 4.53276 0 4.88867V7.46678C0 7.82269 0.288556 8.11131 0.644529 8.11131H5.80076C6.15673 8.11131 6.44529 7.82269 6.44529 7.46678V6.82226H8.51719L10.8224 9.12748C3.88438 12.293 3.81232 22.297 10.6992 25.5635L8.51719 27.7455H6.44529V27.101C6.44529 26.7451 6.15673 26.4565 5.80076 26.4565H0.644529C0.288556 26.4565 0 26.7451 0 27.101V29.6791C0 30.035 0.288556 30.3236 0.644529 30.3236H5.80076C6.15673 30.3236 6.44529 30.035 6.44529 29.6791V29.0346H8.78415C8.95508 29.0346 9.11905 28.9667 9.2399 28.8458L12.0123 26.0734C14.5685 26.8826 17.6509 26.3709 19.7695 24.8552L23.76 28.8457C23.8809 28.9666 24.0449 29.0345 24.2158 29.0345H26.5546V29.679C26.5546 30.035 26.8432 30.3236 27.1992 30.3236H32.3554C32.7114 30.3236 32.9999 30.035 32.9999 29.679V27.1009C33 26.7452 32.7114 26.4565 32.3555 26.4565ZM5.15623 6.82226H1.28906V5.5332H5.15623V6.82226ZM5.15623 29.0346H1.28906V27.7456H5.15623V29.0346ZM19.065 23.7759L15.7413 18.0191H22.3915C22.1957 20.4009 20.9241 22.4825 19.065 23.7759ZM13.9805 9.6081V17.0025L7.5774 20.6993C5.21449 15.8945 8.67432 9.96311 13.9805 9.6081ZM8.22373 21.8145L14.389 18.255L17.9497 24.4221C14.6303 26.0921 10.1999 24.829 8.22373 21.8145ZM31.7109 29.0346H27.8438V27.7456H31.7109V29.0346Z" fill="white"/>
</svg>
