<svg width="31" height="31" viewBox="0 0 31 31" fill="none" xmlns="http://www.w3.org/2000/svg">
<path d="M30.4833 18.6001H27.4676L24.6739 17.6702L23.7667 15.4009V13.6917C23.7631 12.5098 22.8713 11.5196 21.6965 11.3927C21.6965 11.3218 21.7 11.2509 21.7 11.1803V3.61673C21.7 3.38842 21.5504 3.18735 21.3317 3.12176L10.9983 0.021759C10.9015 -0.00725301 10.7985 -0.00725301 10.7017 0.021759L0.368327 3.12176C0.149853 3.18735 0 3.38842 0 3.61673V11.1803C0 11.42 0.0161458 11.6566 0.0247233 11.8947C0.0378418 12.2437 0.0572673 12.5903 0.0882976 12.9349C0.0935954 12.9937 0.100659 13.0489 0.106462 13.1069C0.740942 19.6669 4.71534 25.4356 10.6192 28.365C10.7645 28.4377 10.9355 28.4377 11.0811 28.365C11.8538 27.977 12.6001 27.5375 13.314 27.0496C13.4762 27.2731 13.6811 27.4621 13.917 27.6057C13.401 28.221 13.2883 29.0792 13.6276 29.807C13.9669 30.5346 14.697 30.9998 15.5 31.0001H24.2833C24.3855 31.0001 24.4852 30.9698 24.5702 30.9133L27.5382 28.9334H30.4833C30.7687 28.9334 31 28.7021 31 28.4167V19.1167C31 18.8314 30.7687 18.6001 30.4833 18.6001ZM19.3011 16.0616L19.9035 17.5667H16.9017C17.9988 15.5987 18.5816 13.3855 18.5965 11.1321L20.6667 10.5113V11.1803C20.6667 11.2908 20.6631 11.4008 20.6611 11.5115C19.7378 11.8395 19.1197 12.7119 19.1167 13.6917V15.1017C19.1164 15.4307 19.179 15.7564 19.3011 16.0616ZM11.8833 19.6334C11.8838 20.1612 12.0874 20.6687 12.4517 21.0507C12.26 21.1902 12.072 21.3348 11.874 21.4639L10.85 22.1191L9.82802 21.4624C7.53708 19.9939 5.79509 17.8097 4.87276 15.2495L17.5518 11.4457C17.4811 13.6135 16.8414 15.7246 15.6968 17.5667H13.95C12.8087 17.5667 11.8833 18.4921 11.8833 19.6334ZM1.31387 14.331C1.30983 14.305 1.30504 14.2793 1.301 14.2543L3.3543 13.64C3.4151 13.9501 3.48901 14.2601 3.57176 14.5628L1.48895 15.188C1.42083 14.8916 1.36458 14.6088 1.31387 14.331ZM1.07572 12.2555L3.11917 11.6422C3.13355 11.9661 3.15727 12.2881 3.1946 12.6072L1.15569 13.219C1.15064 13.1725 1.14661 13.1266 1.14131 13.08C1.11507 12.8135 1.09111 12.5431 1.07572 12.2555ZM17.5667 6.22907L4.13333 10.259V6.56435L10.8677 4.15938L17.5667 6.07291V6.22907ZM17.5667 7.30782V8.29574L4.20372 12.3044C4.17118 11.9836 4.15099 11.6604 4.14267 11.3352L17.5667 7.30782ZM20.6667 8.44459V9.43226L18.6 10.0524V9.06444L20.6667 8.44459ZM20.6667 7.36559L18.6 7.98569V6.99777L20.6667 6.37792V7.36559ZM4.34827 13.3398L12.7555 10.818L17.5667 9.37449V10.3624L4.5612 14.2641C4.47946 13.9594 4.40655 13.6519 4.34827 13.3398ZM1.03333 4.0012L10.85 1.0561L20.6667 4.0012V5.29892L18.6 5.91902V5.6834C18.6 5.45281 18.4471 5.25023 18.2254 5.18691L10.992 3.12025C10.8886 3.09022 10.7778 3.0935 10.6764 3.13008L3.4431 5.71342C3.23724 5.78683 3.1 5.98159 3.1 6.20006V10.569L1.03333 11.1891V4.0012ZM10.85 27.3203C6.3998 25.0344 3.09697 21.0048 1.72887 16.1923L3.88181 15.5465C4.87528 18.3432 6.7704 20.7301 9.26897 22.3315L10.5705 23.1681C10.7408 23.2776 10.9592 23.2776 11.1295 23.1681L12.431 22.3315L12.4444 22.3227C12.2625 23.1799 12.6477 24.0576 13.4018 24.5041C13.0882 24.876 12.9164 25.347 12.9167 25.8334C12.9177 25.9053 12.9225 25.9769 12.931 26.0483C12.2665 26.5183 11.5715 26.9434 10.85 27.3203ZM24.1284 29.9667H15.5C14.9293 29.9667 14.4667 29.504 14.4667 28.9334C14.4657 28.3971 14.8791 27.9508 15.4142 27.9109C15.692 27.8822 15.8991 27.6422 15.887 27.3632C15.8761 27.0857 15.6481 26.8665 15.3703 26.8667H14.9833C14.4127 26.8667 13.95 26.4041 13.95 25.8334C13.95 25.2627 14.4127 24.8001 14.9833 24.8001C15.2687 24.8001 15.5 24.5687 15.5 24.2834C15.5 23.9981 15.2687 23.7667 14.9833 23.7667H14.4667C13.896 23.7667 13.4333 23.3041 13.4333 22.7334C13.4333 22.1627 13.896 21.7001 14.4667 21.7001C14.752 21.7001 14.9833 21.4687 14.9833 21.1834C14.9833 20.8981 14.752 20.6667 14.4667 20.6667H13.95C13.3793 20.6667 12.9167 20.2041 12.9167 19.6334C12.9167 19.0627 13.3793 18.6001 13.95 18.6001H20.6667C20.8382 18.6003 20.9987 18.5153 21.0948 18.373C21.1912 18.231 21.2106 18.0506 21.1468 17.8912L20.261 15.6779C20.1873 15.4948 20.1497 15.2992 20.15 15.1017V13.6917C20.15 12.9783 20.7282 12.4001 21.4417 12.4001C22.1551 12.4001 22.7333 12.9783 22.7333 13.6917V15.5001C22.7333 15.5659 22.7459 15.631 22.7699 15.6923L23.8032 18.2756C23.8603 18.4164 23.9761 18.5254 24.1201 18.5738L26.8667 19.4893V28.1402L24.1284 29.9667ZM29.9667 27.9001H27.9V19.6334H29.9667V27.9001Z" fill="white"/>
<path d="M27.1868 6.63477L26.4805 7.38933C26.7163 7.61007 26.9381 7.84545 27.1445 8.09395L27.9391 7.43323C27.7053 7.15168 27.454 6.88503 27.1868 6.63477Z" fill="white"/>
<path d="M29.9665 13.0453C29.9665 12.8427 29.9597 12.6422 29.9458 12.4434L28.915 12.5132C28.9269 12.6888 28.933 12.8662 28.9332 13.0453C28.9332 13.1916 28.9292 13.3372 28.9208 13.4815L29.9542 13.5408C29.9625 13.3765 29.9665 13.2113 29.9665 13.0453Z" fill="white"/>
<path d="M26.3419 5.93673C26.0457 5.72128 25.7364 5.5245 25.4155 5.34766L24.917 6.25233C25.1998 6.40748 25.4725 6.58004 25.7339 6.76899L26.3419 5.93673Z" fill="white"/>
<path d="M29.8245 14.6283L28.8075 14.4434C28.75 14.761 28.6723 15.0746 28.5752 15.3821L29.5598 15.6921C29.6703 15.3435 29.7586 14.9883 29.8245 14.6283Z" fill="white"/>
<path d="M24.4226 4.87888C24.0821 4.74366 23.7334 4.63014 23.3785 4.53906L23.1201 5.53985C23.4329 5.62058 23.7405 5.72048 24.0409 5.83956L24.4226 4.87888Z" fill="white"/>
<path d="M27.9648 16.7988L28.869 17.2998C28.9724 17.1104 29.0756 16.9161 29.1639 16.7171L28.2257 16.2852C28.1465 16.4597 28.0597 16.631 27.9648 16.7988Z" fill="white"/>
<path d="M27.7168 8.87344C27.8904 9.14514 28.047 9.42744 28.186 9.71857L29.119 9.27532C28.9618 8.94483 28.7842 8.62444 28.5869 8.31641L27.7168 8.87344Z" fill="white"/>
<path d="M28.5459 10.6164C28.6466 10.9229 28.728 11.2355 28.7899 11.5521L29.804 11.3553C29.7341 10.9958 29.6418 10.6409 29.527 10.293L28.5459 10.6164Z" fill="white"/>
<path d="M23.2425 9.85365C24.4981 10.3509 25.3208 11.5661 25.3165 12.9163H26.3498C26.3559 11.143 25.2751 9.54713 23.6265 8.89398L23.4421 8.82031L23.0576 9.77922L23.2425 9.85365Z" fill="white"/>
</svg>
