<svg width="33" height="29" viewBox="0 0 33 29" fill="none" xmlns="http://www.w3.org/2000/svg">
<path d="M28.9116 23.9759V23.9731C28.9116 23.9701 28.9112 23.9672 28.9111 23.9641C28.9109 23.9515 28.9105 23.9388 28.9092 23.9262C28.9086 23.9206 28.9076 23.9151 28.9069 23.9095C28.9055 23.8995 28.9042 23.8895 28.9023 23.8795C28.9007 23.8716 28.8986 23.8639 28.8967 23.8562C28.8948 23.8488 28.8932 23.8414 28.8909 23.834C28.8879 23.8239 28.8842 23.814 28.8805 23.8042C28.8787 23.7993 28.8772 23.7944 28.8752 23.7895C28.8701 23.7773 28.8644 23.7654 28.8584 23.7537C28.8572 23.7514 28.8564 23.7491 28.8552 23.7468L26.111 18.5683C25.9822 18.3252 25.7313 18.1741 25.4561 18.1741H21.3392V16.9425H23.6229C23.9605 16.9425 24.2352 16.6678 24.2352 16.3302V13.1963C24.2352 12.8587 23.9605 12.584 23.6229 12.584H18.0888C17.7512 12.584 17.4765 12.8587 17.4765 13.1963V16.3302C17.4765 16.6678 17.7512 16.9425 18.0888 16.9425H20.3725V18.1741H15.5802C15.3131 18.1741 15.0968 18.3906 15.0968 18.6575C15.0968 18.9245 15.3131 19.1409 15.5802 19.1409H25.3204L27.625 23.4897H19.2718C19.0047 23.4897 18.7884 23.7061 18.7884 23.9731C18.7884 24.2401 19.0047 24.4565 19.2718 24.4565H27.9448V27.271H5.05579V24.4565H17.0159C17.2829 24.4565 17.4993 24.2401 17.4993 23.9731C17.4993 23.7061 17.2829 23.4897 17.0159 23.4897H5.37561L7.68013 19.1409H13.3244C13.5914 19.1409 13.8078 18.9245 13.8078 18.6575C13.8078 18.3906 13.5914 18.1741 13.3244 18.1741H12.628V16.9425H14.9117C15.2493 16.9425 15.524 16.6678 15.524 16.3302V13.1963C15.524 12.8587 15.2493 12.584 14.9117 12.584H9.37757C9.03996 12.584 8.76526 12.8587 8.76526 13.1963V16.3302C8.76526 16.6678 9.03996 16.9425 9.37757 16.9425H11.6613V18.1741H7.54439C7.26918 18.1741 7.01826 18.3251 6.88948 18.5683L4.14526 23.7467C4.14404 23.7491 4.1432 23.7515 4.14198 23.7537C4.13598 23.7654 4.13031 23.7772 4.12528 23.7894C4.12329 23.7943 4.12174 23.7993 4.11987 23.8042C4.1162 23.814 4.11252 23.8238 4.10949 23.8339C4.10724 23.8412 4.10562 23.8486 4.10376 23.8561C4.10182 23.8639 4.0997 23.8715 4.09815 23.8794C4.09615 23.8893 4.09493 23.8992 4.09357 23.9092C4.0928 23.9148 4.09177 23.9204 4.09125 23.9261C4.09003 23.9388 4.08958 23.9513 4.08932 23.964C4.08925 23.967 4.08887 23.9699 4.08887 23.973V27.4966C4.08887 27.9053 4.42138 28.2378 4.83008 28.2378H28.1703C28.579 28.2378 28.9115 27.9053 28.9115 27.4966C28.9116 27.4966 28.9116 23.9769 28.9116 23.9759ZM18.4434 13.5508H23.2685V15.9757H18.4434V13.5508ZM9.732 13.5508H14.5572V15.9757H9.732V13.5508Z" fill="white"/>
<path d="M8.33496 10.7703H24.6642C25.1084 10.7703 25.4698 10.4089 25.4698 9.96467V2.8252C25.4698 2.38092 25.1084 2.01953 24.6642 2.01953H8.33496C7.89069 2.01953 7.5293 2.38092 7.5293 2.8252V9.96467C7.5293 10.4089 7.89075 10.7703 8.33496 10.7703ZM8.49609 2.98633H24.503V9.80354H8.49609V2.98633Z" fill="white"/>
<path d="M32.6899 0.932669C32.493 0.778949 32.2413 0.725517 31.9987 0.786167L27.2509 1.97385C26.8916 2.06369 26.6406 2.38512 26.6406 2.7554V10.0362C26.6406 10.4066 26.8916 10.7279 27.2508 10.8178L31.9987 12.0055C32.0642 12.0218 32.1304 12.0299 32.196 12.0299C32.3732 12.0299 32.5463 11.9711 32.6899 11.859C32.8869 11.7052 32.9999 11.4737 32.9999 11.2238V1.56779C32.9999 1.31791 32.8869 1.08639 32.6899 0.932669ZM32.0331 11.0175L27.6075 9.91041V2.88122L32.0331 1.77417V11.0175Z" fill="white"/>
<path d="M6.3592 10.0362V2.75536C6.3592 2.38501 6.10822 2.06365 5.74903 1.9738L1.00115 0.786122C0.758742 0.725601 0.506795 0.778839 0.309891 0.932624C0.112986 1.08634 0 1.31786 0 1.56774V11.2239C0 11.4737 0.112986 11.7052 0.309955 11.859C0.453686 11.9712 0.626678 12.0299 0.803859 12.0299C0.869473 12.0299 0.935731 12.0218 1.00121 12.0055L5.74903 10.8178C6.10829 10.7279 6.3592 10.4065 6.3592 10.0362ZM5.39241 9.91036L0.966797 11.0174V1.77412L5.39241 2.88117V9.91036Z" fill="white"/>
<path d="M23.2354 4.7168C22.9683 4.7168 22.752 4.93323 22.752 5.2002V7.59083C22.752 7.85779 22.9683 8.07422 23.2354 8.07422C23.5024 8.07422 23.7188 7.85779 23.7188 7.59083V5.2002C23.7188 4.93323 23.5024 4.7168 23.2354 4.7168Z" fill="white"/>
<path d="M21.2803 5.23242C21.0132 5.23242 20.7969 5.44886 20.7969 5.71582V7.59063C20.7969 7.8576 21.0132 8.07403 21.2803 8.07403C21.5473 8.07403 21.7637 7.8576 21.7637 7.59063V5.71582C21.7637 5.44886 21.5473 5.23242 21.2803 5.23242Z" fill="white"/>
<path d="M19.3252 5.8125C19.0582 5.8125 18.8418 6.02893 18.8418 6.2959V7.59044C18.8418 7.85741 19.0582 8.07384 19.3252 8.07384C19.5922 8.07384 19.8086 7.85741 19.8086 7.59044V6.2959C19.8086 6.02893 19.5922 5.8125 19.3252 5.8125Z" fill="white"/>
<path d="M14.088 5.30444C12.9702 4.18663 11.6997 3.83407 11.0671 4.46662C10.4347 5.09909 10.7872 6.36946 11.905 7.48734C12.6502 8.23248 13.463 8.63744 14.1095 8.63744C14.433 8.63744 14.7149 8.53599 14.9258 8.32517C15.5582 7.69269 15.2058 6.42232 14.088 5.30444ZM14.2422 7.64151C14.2128 7.67097 14.0486 7.69971 13.7521 7.59343C13.382 7.46072 12.9579 7.17287 12.5887 6.80375C12.2195 6.43456 11.9317 6.01053 11.7989 5.64031C11.6927 5.34389 11.7215 5.1796 11.7508 5.1502C11.7645 5.13661 11.8069 5.12313 11.8782 5.12313C11.9607 5.12313 12.0818 5.14125 12.241 5.19835C12.6112 5.33106 13.0352 5.61891 13.4044 5.9881C13.7736 6.35728 14.0614 6.78132 14.1941 7.15147C14.3003 7.44789 14.2716 7.61212 14.2422 7.64151Z" fill="white"/>
<path d="M9.76465 20.0059H9.12012C8.85309 20.0059 8.63672 20.2223 8.63672 20.4893C8.63672 20.7562 8.85309 20.9727 9.12012 20.9727H9.76465C10.0317 20.9727 10.248 20.7562 10.248 20.4893C10.248 20.2223 10.0317 20.0059 9.76465 20.0059Z" fill="white"/>
<path d="M9.76465 21.6602H9.12012C8.85309 21.6602 8.63672 21.8766 8.63672 22.1436C8.63672 22.4105 8.85309 22.627 9.12012 22.627H9.76465C10.0317 22.627 10.248 22.4105 10.248 22.1436C10.248 21.8766 10.0317 21.6602 9.76465 21.6602Z" fill="white"/>
<path d="M11.9258 20.6099V22.0229C11.9258 22.427 12.2546 22.7558 12.6587 22.7558H14.6063C15.0105 22.7558 15.3393 22.427 15.3393 22.0229V20.6099C15.3393 20.2057 15.0104 19.877 14.6063 19.877H12.6587C12.2546 19.877 11.9258 20.2057 11.9258 20.6099ZM12.8926 20.8438H14.3725V21.7891H12.8926V20.8438Z" fill="white"/>
<path d="M23.2354 20.9727H23.8799C24.1469 20.9727 24.3633 20.7562 24.3633 20.4893C24.3633 20.2223 24.1469 20.0059 23.8799 20.0059H23.2354C22.9683 20.0059 22.752 20.2223 22.752 20.4893C22.752 20.7562 22.9683 20.9727 23.2354 20.9727Z" fill="white"/>
<path d="M23.2354 22.627H23.8799C24.1469 22.627 24.3633 22.4105 24.3633 22.1436C24.3633 21.8766 24.1469 21.6602 23.8799 21.6602H23.2354C22.9683 21.6602 22.752 21.8766 22.752 22.1436C22.752 22.4105 22.9683 22.627 23.2354 22.627Z" fill="white"/>
<path d="M20.3406 22.7558C20.7448 22.7558 21.0737 22.427 21.0737 22.0229V20.6099C21.0737 20.2057 20.7448 19.877 20.3406 19.877H18.3931C17.9889 19.877 17.6602 20.2058 17.6602 20.6099V22.0229C17.6602 22.427 17.989 22.7558 18.3931 22.7558H20.3406ZM18.627 20.8438H20.1069V21.7891H18.627V20.8438Z" fill="white"/>
</svg>
