<svg width="33" height="33" viewBox="0 0 33 33" fill="none" xmlns="http://www.w3.org/2000/svg">
<path d="M18.0791 13.1475C18.0791 13.4143 18.2956 13.6309 18.5625 13.6309H19.3682V19.3672H13.6318V13.6309H16.5C16.7669 13.6309 16.9834 13.4143 16.9834 13.1475C16.9834 12.8806 16.7669 12.6641 16.5 12.6641H13.4062C12.9976 12.6641 12.665 12.9967 12.665 13.4053V19.5928C12.665 20.0014 12.9976 20.334 13.4062 20.334H19.5938C20.0024 20.334 20.335 20.0014 20.335 19.5928V13.4053C20.335 12.9967 20.0024 12.6641 19.5938 12.6641H18.5625C18.2956 12.6641 18.0791 12.8806 18.0791 13.1475Z" fill="white"/>
<path d="M2.6748 1.93359C2.26618 1.93359 1.93359 2.26618 1.93359 2.6748V6.02637C1.93359 6.43499 2.26618 6.76758 2.6748 6.76758H6.02637C6.43499 6.76758 6.76758 6.43499 6.76758 6.02637V2.6748C6.76758 2.26618 6.43499 1.93359 6.02637 1.93359H2.6748ZM5.80078 5.80078H2.90039V2.90039H5.80078V5.80078Z" fill="white"/>
<path d="M6.02637 26.2324H2.6748C2.26618 26.2324 1.93359 26.565 1.93359 26.9736V30.3252C1.93359 30.7338 2.26618 31.0664 2.6748 31.0664H6.02637C6.43499 31.0664 6.76758 30.7338 6.76758 30.3252V26.9736C6.76758 26.565 6.43499 26.2324 6.02637 26.2324ZM5.80078 30.0996H2.90039V27.1992H5.80078V30.0996Z" fill="white"/>
<path d="M25.5557 8.70117H31.7432C32.4363 8.70117 33 8.13746 33 7.44434V1.25684C33 0.563713 32.4363 0 31.7432 0H25.5557C24.8625 0 24.2988 0.563713 24.2988 1.25684V3.86719H18.498C18.2312 3.86719 18.0146 4.08371 18.0146 4.35059V10.7314H15.3721V8.84367C15.9348 8.64402 16.3389 8.10674 16.3389 7.47656C16.3389 6.67694 15.6883 6.02637 14.8887 6.02637C14.0891 6.02637 13.4385 6.67694 13.4385 7.47656C13.4385 8.10674 13.8426 8.64402 14.4053 8.84367V10.7314H12.2456C11.4107 10.7314 10.7314 11.4107 10.7314 12.2456V15.0498H4.83398V8.70117H7.44434C8.13746 8.70117 8.70117 8.13746 8.70117 7.44434V6.1875C8.70117 5.92062 8.48465 5.7041 8.21777 5.7041C7.9509 5.7041 7.73438 5.92062 7.73438 6.1875V7.44434C7.73438 7.60421 7.60421 7.73438 7.44434 7.73438H1.25684C1.09696 7.73438 0.966797 7.60421 0.966797 7.44434V1.25684C0.966797 1.09696 1.09696 0.966797 1.25684 0.966797H7.44434C7.60421 0.966797 7.73438 1.09696 7.73438 1.25684V4.125C7.73438 4.39188 7.9509 4.6084 8.21777 4.6084C8.48465 4.6084 8.70117 4.39188 8.70117 4.125V1.25684C8.70117 0.563713 8.13746 0 7.44434 0H1.25684C0.563713 0 0 0.563713 0 1.25684V7.44434C0 8.13746 0.563713 8.70117 1.25684 8.70117H3.86719V15.5332C3.86719 15.8001 4.08371 16.0166 4.35059 16.0166H10.7314V18.0791H10.0683C9.86863 17.5164 9.33135 17.1123 8.70117 17.1123C7.90155 17.1123 7.25098 17.7629 7.25098 18.5625C7.25098 19.3621 7.90155 20.0127 8.70117 20.0127C9.33135 20.0127 9.86863 19.6086 10.0683 19.0459H10.7314V20.7544C10.7314 21.5893 11.4107 22.2686 12.2456 22.2686H14.4053V28.0104H8.70117V25.5557C8.70117 24.8625 8.13746 24.2988 7.44434 24.2988H1.25684C0.563713 24.2988 0 24.8625 0 25.5557V31.7432C0 32.4363 0.563713 33 1.25684 33H7.44434C8.13746 33 8.70117 32.4363 8.70117 31.7432V28.9772H14.8887C15.1555 28.9772 15.3721 28.7607 15.3721 28.4938V22.2686H18.0146V24.4141C17.4519 24.6138 17.0479 25.1511 17.0479 25.7812C17.0479 26.5809 17.6984 27.2314 18.498 27.2314C19.2977 27.2314 19.9482 26.5809 19.9482 25.7812C19.9482 25.1511 19.5442 24.6138 18.9814 24.4141V22.2686H20.7544C21.5893 22.2686 22.2686 21.5893 22.2686 20.7544V17.4635H28.1668V24.2988H25.5557C24.8625 24.2988 24.2988 24.8625 24.2988 25.5557V26.8125C24.2988 27.0794 24.5154 27.2959 24.7822 27.2959C25.0491 27.2959 25.2656 27.0794 25.2656 26.8125V25.5557C25.2656 25.3958 25.3958 25.2656 25.5557 25.2656H31.7432C31.903 25.2656 32.0332 25.3958 32.0332 25.5557V31.7432C32.0332 31.903 31.903 32.0332 31.7432 32.0332H25.5557C25.3958 32.0332 25.2656 31.903 25.2656 31.7432V28.8669C25.2656 28.6001 25.0491 28.3835 24.7822 28.3835C24.5154 28.3835 24.2988 28.6001 24.2988 28.8669V31.7432C24.2988 32.4363 24.8625 33 25.5557 33H31.7432C32.4363 33 33 32.4363 33 31.7432V25.5557C33 24.8625 32.4363 24.2988 31.7432 24.2988H29.1336V16.9801C29.1336 16.7132 28.917 16.4967 28.6502 16.4967H22.2686V14.8564H24.572C24.7717 15.4192 25.3089 15.8232 25.9391 15.8232C26.7387 15.8232 27.3893 15.1727 27.3893 14.373C27.3893 13.5734 26.7387 12.9229 25.9391 12.9229C25.3089 12.9229 24.7717 13.3269 24.572 13.8896H22.2686V12.2456C22.2686 11.4107 21.5893 10.7314 20.7544 10.7314H18.9814V4.83398H24.2988V7.44434C24.2988 8.13746 24.8625 8.70117 25.5557 8.70117ZM14.8887 6.99316C15.1553 6.99316 15.3721 7.20994 15.3721 7.47656C15.3721 7.74319 15.1553 7.95996 14.8887 7.95996C14.622 7.95996 14.4053 7.74319 14.4053 7.47656C14.4053 7.20994 14.622 6.99316 14.8887 6.99316ZM8.70117 19.0459C8.43455 19.0459 8.21777 18.8291 8.21777 18.5625C8.21777 18.2959 8.43455 18.0791 8.70117 18.0791C8.9678 18.0791 9.18457 18.2959 9.18457 18.5625C9.18457 18.8291 8.9678 19.0459 8.70117 19.0459ZM7.73438 31.7432C7.73438 31.903 7.60421 32.0332 7.44434 32.0332H1.25684C1.09696 32.0332 0.966797 31.903 0.966797 31.7432V25.5557C0.966797 25.3958 1.09696 25.2656 1.25684 25.2656H7.44434C7.60421 25.2656 7.73438 25.3958 7.73438 25.5557V31.7432ZM18.498 26.2646C18.2314 26.2646 18.0146 26.0479 18.0146 25.7812C18.0146 25.5146 18.2314 25.2979 18.498 25.2979C18.7647 25.2979 18.9814 25.5146 18.9814 25.7812C18.9814 26.0479 18.7647 26.2646 18.498 26.2646ZM25.9391 13.8896C26.2057 13.8896 26.4225 14.1064 26.4225 14.373C26.4225 14.6397 26.2057 14.8564 25.9391 14.8564C25.6725 14.8564 25.4557 14.6397 25.4557 14.373C25.4557 14.1064 25.6725 13.8896 25.9391 13.8896ZM21.3018 12.2456V20.7544C21.3018 21.0563 21.0563 21.3018 20.7544 21.3018H12.2456C11.9437 21.3018 11.6982 21.0563 11.6982 20.7544V12.2456C11.6982 11.9437 11.9437 11.6982 12.2456 11.6982H20.7544C21.0563 11.6982 21.3018 11.9437 21.3018 12.2456ZM25.5557 0.966797H31.7432C31.903 0.966797 32.0332 1.09696 32.0332 1.25684V7.44434C32.0332 7.60421 31.903 7.73438 31.7432 7.73438H25.5557C25.3958 7.73438 25.2656 7.60421 25.2656 7.44434V4.36317C25.2659 4.35889 25.2664 4.35487 25.2664 4.35059C25.2664 4.34631 25.2659 4.34228 25.2656 4.338V1.25684C25.2656 1.09696 25.3958 0.966797 25.5557 0.966797Z" fill="white"/>
</svg>
