<svg width="33" height="33" viewBox="0 0 33 33" fill="none" xmlns="http://www.w3.org/2000/svg">
<g clip-path="url(#clip0_401_225)">
<path d="M4.33887 12.1387H14.728V13.2423H4.33887V12.1387Z" fill="white"/>
<path d="M4.33887 14.3457H21.9963V15.4493H4.33887V14.3457Z" fill="white"/>
<path d="M4.33887 16.5547H21.9963V17.6583H4.33887V16.5547Z" fill="white"/>
<path d="M4.33887 18.7617H12.064V19.8653H4.33887V18.7617Z" fill="white"/>
<path d="M16.9361 11.5973C19.1002 11.5973 20.8604 9.83709 20.8604 7.67295C20.8604 7.29663 20.8041 6.93355 20.7048 6.58868L22.2322 5.23127L21.4994 4.40689L20.2253 5.53917C19.5245 4.46317 18.3133 3.74805 16.9361 3.74805C14.7719 3.74805 13.0117 5.50882 13.0117 7.67295C13.0117 9.83709 14.7719 11.5973 16.9361 11.5973ZM16.9361 4.85108C17.9867 4.85108 18.8944 5.43543 19.38 6.28961L17.2776 8.15853L16.0808 6.56274L15.1979 7.22435L16.7545 9.30019C16.8472 9.42435 16.9874 9.5027 17.1402 9.5187C17.159 9.52036 17.1772 9.52146 17.196 9.52146C17.3306 9.52146 17.4608 9.47235 17.5624 9.38186L19.7348 7.45058C19.7408 7.52507 19.7574 7.59625 19.7574 7.6724C19.7574 9.22791 18.4921 10.4932 16.9366 10.4932C15.3811 10.4932 14.1159 9.22791 14.1159 7.6724C14.1159 6.1169 15.38 4.85108 16.9361 4.85108Z" fill="white"/>
<path d="M29.8102 28.5178C29.243 28.0681 28.5129 27.9268 27.8364 28.1199L25.7921 26.4817L26.388 25.7367C26.9657 25.0227 26.9619 24.0168 26.4244 23.3089L30.8801 5.35019L24.247 3.70419V1.66366H16.0209L11.3897 0.514823L11.1066 1.66366H8.22295C7.80249 0.684776 6.87989 0 5.80499 0C4.74996 0 3.81578 0.659393 3.38703 1.66366H2.12012V33H24.247V32.0851L24.9787 29.1242L26.2296 30.1241C26.1882 30.8298 26.4868 31.5135 27.0523 31.9693C27.4585 32.2943 27.9452 32.4515 28.4291 32.4515C29.078 32.4515 29.7208 32.1679 30.1573 31.6233C30.5253 31.1647 30.6931 30.5909 30.6291 30.0054C30.5651 29.4172 30.2743 28.8891 29.8102 28.5178ZM21.4787 28.6784L20.8794 28.2011L24.7889 23.3199L25.3997 23.8121L25.4775 23.9037C25.7755 24.2149 25.8053 24.7021 25.5288 25.0437L24.721 26.054L24.6377 26.155L24.614 26.1876L24.5941 26.2118C24.5908 26.2157 24.5858 26.2174 24.5831 26.2212L24.0114 26.9375L24.0103 26.9363L23.4326 27.6647L22.7318 28.541C22.4223 28.9234 21.8611 28.9863 21.4787 28.6784ZM29.5437 6.1547L25.4946 22.4712L24.6206 21.7666L24.247 22.2323V4.84088L29.5437 6.1547ZM5.80499 1.10359C6.25636 1.10359 6.66083 1.32155 6.9461 1.66366H4.66223C4.95137 1.31603 5.36025 1.10359 5.80499 1.10359ZM3.2237 2.76724H7.35829C7.3594 2.79097 7.36491 2.81304 7.36491 2.83732V7.89396C7.36491 8.45623 6.96155 8.91367 6.46494 8.91367C5.96832 8.91367 5.56496 8.45623 5.56496 7.89396L5.56772 4.96614C5.56772 4.77963 5.67587 4.66045 5.75037 4.66045C5.82486 4.66045 5.93301 4.77963 5.93301 4.96614V7.42438H7.0366V4.96614C7.0366 4.18922 6.45942 3.55686 5.75037 3.55686C5.04131 3.55686 4.46414 4.18922 4.46414 4.96614L4.46138 7.89396C4.46138 9.06486 5.36025 10.0173 6.46494 10.0173C7.56963 10.0173 8.4685 9.06486 8.4685 7.89396V2.83732C8.4685 2.8136 8.46243 2.79097 8.46188 2.76724H10.8346H20.4695H23.1434V3.4305V23.6079L19.3267 28.3743L20.7889 29.5397C20.8778 29.6109 20.971 29.6727 21.0676 29.7262C21.1024 29.7455 21.1393 29.7588 21.1752 29.7759C21.2381 29.8062 21.301 29.8371 21.3661 29.8603C21.4086 29.8758 21.4528 29.884 21.4963 29.8962C21.557 29.9133 21.6172 29.9309 21.6784 29.942C21.7237 29.9502 21.7689 29.9525 21.8147 29.9574C21.8754 29.964 21.9361 29.9712 21.9974 29.9723C22.0084 29.9723 22.0194 29.9751 22.031 29.9751C22.0514 29.9751 22.0719 29.969 22.0928 29.9685C22.1977 29.9651 22.3014 29.9541 22.404 29.9342C22.4377 29.9282 22.4708 29.9227 22.5039 29.9144C22.6308 29.8835 22.7561 29.8438 22.8758 29.7886C22.8841 29.7847 22.8918 29.7786 22.9007 29.7748C22.984 29.735 23.0656 29.6915 23.1434 29.6396V31.8953H3.2237V2.76724ZM29.297 30.9324C29.2965 30.933 29.2959 30.933 29.2954 30.9335C28.9152 31.4092 28.2177 31.4886 27.7437 31.1079C27.4132 30.8425 27.2653 30.4209 27.3575 30.0076C27.4027 29.8024 27.3277 29.5883 27.1627 29.4569L24.875 27.6283L25.1023 27.3441L25.3561 27.5483V27.5472L27.3895 29.1761C27.5534 29.3074 27.7791 29.3339 27.9689 29.2451C28.3496 29.0663 28.7922 29.1187 29.1221 29.3808C29.355 29.5667 29.5007 29.8311 29.5327 30.1257C29.5641 30.4171 29.4808 30.704 29.297 30.9324Z" fill="white"/>
<path d="M12.5215 25.8828H19.6948V26.9864H12.5215V25.8828Z" fill="white"/>
<path d="M14.015 24.2977C13.8241 24.0456 13.6166 23.7437 13.5266 23.4176C13.4505 23.1423 13.4753 22.8708 13.5929 22.6931C13.6889 22.5486 13.8825 22.4603 14.0078 22.5055C14.1358 22.5513 14.2578 22.7367 14.3113 22.9674C14.3538 23.1506 14.3643 23.3569 14.3753 23.5754C14.383 23.7261 14.3907 23.8773 14.4079 24.0257C14.4294 24.2199 14.4746 24.4716 14.6324 24.6967C14.814 24.9544 15.097 25.1017 15.3834 25.1017C15.4623 25.1017 15.5407 25.0901 15.6179 25.0675C15.9082 24.982 16.1234 24.7568 16.2564 24.3987C16.3281 24.2067 16.3805 24.0064 16.4307 23.8067C16.4942 23.5572 16.5543 23.3194 16.6586 23.1384C16.6763 23.2184 16.684 23.3156 16.6928 23.4187C16.705 23.5688 16.7193 23.7195 16.7535 23.8668C16.886 24.4324 17.3197 24.8208 17.8157 24.8208H17.8422C18.1352 24.8115 18.3565 24.6719 18.5033 24.5792L19.4463 23.9827L18.857 23.0496L17.9139 23.6466C17.8985 23.6566 17.8748 23.6715 17.8544 23.6847C17.8439 23.6654 17.835 23.6417 17.8284 23.6152C17.8069 23.5214 17.8008 23.4243 17.7931 23.3277C17.7799 23.1616 17.7639 22.9729 17.7048 22.7759C17.5514 22.2666 17.0493 21.8174 16.4677 21.9477C16.2205 22.0034 16.0031 22.1568 15.8221 22.4029C15.6411 22.6501 15.5346 22.9205 15.4568 23.1815C15.4441 23.0308 15.4237 22.8763 15.3873 22.718C15.246 22.1071 14.8686 21.6381 14.3775 21.4643C13.7705 21.248 13.0538 21.5084 12.6725 22.0834C12.3778 22.5304 12.3011 23.1235 12.4633 23.7106C12.6035 24.2188 12.8965 24.6465 13.136 24.9627L14.015 24.2977Z" fill="white"/>
</g>
<defs>
<clipPath id="clip0_401_225">
<rect width="33" height="33" fill="white"/>
</clipPath>
</defs>
</svg>
