<svg width="33" height="33" viewBox="0 0 33 33" fill="none" xmlns="http://www.w3.org/2000/svg">
<path d="M30.7578 17.241C29.2414 15.7313 27.4883 17.1443 27.4883 17.1443V9.19712C27.4883 8.93025 27.272 8.71372 27.0052 8.71372C26.738 8.71372 26.5218 8.93025 26.5218 9.19712V17.8243C26.5218 17.8243 24.2168 19.6414 23.2261 20.0855V5.7763C23.2261 5.11112 23.7671 4.57007 24.4323 4.57007H25.3155C25.9807 4.57007 26.5218 5.11112 26.5218 5.7763V7.2182C26.5218 7.48533 26.738 7.7016 27.0052 7.7016C27.272 7.7016 27.4883 7.48533 27.4883 7.2182V5.7763C27.4883 4.57812 26.5137 3.60352 25.3155 3.60352H24.4323C23.2341 3.60352 22.2593 4.57812 22.2593 5.7763V20.4687C21.971 20.5495 21.6752 20.6044 21.3745 20.6333V10.4424C21.3745 9.23816 20.3949 8.25852 19.1909 8.25852H18.3291C17.1251 8.25852 16.1455 9.23816 16.1455 10.4424V15.3675L15.2605 15.8373V14.1983C15.2605 13.1142 14.3786 12.2322 13.2947 12.2322H11.9976C10.9134 12.2322 10.0317 13.1142 10.0317 14.1983V18.6129L8.45338 19.4505L4.0212 20.7172C3.25002 20.9375 2.60599 21.4425 2.20819 22.1389C1.81014 22.8356 1.70213 23.6468 1.90405 24.423L2.39979 26.3304C2.46676 26.5887 2.73062 26.7436 2.98919 26.6766C3.2475 26.6094 3.40259 26.3455 3.33537 26.087L2.83963 24.1798C2.55211 23.0735 3.18783 21.9607 4.28707 21.6467L8.33933 20.4886L11.385 28.6173C11.5889 29.1616 11.5567 30.7145 9.94563 31.2868L6.88334 31.9824C5.81608 32.2246 4.76443 31.5849 4.48899 30.5254L3.86736 28.1334C3.80014 27.875 3.53628 27.72 3.27797 27.7869C3.0194 27.8541 2.86456 28.118 2.93153 28.3766L3.55341 30.7689C3.90286 32.1129 5.09676 33.0009 6.42587 33.0009C7.40249 33.0009 10.1599 32.2294 10.1599 32.2294C10.999 32.0391 11.7146 31.4953 12.1227 30.7379C12.4596 30.113 12.5595 29.394 12.415 28.7089L23.0096 26.1152C23.8857 25.9004 24.7176 25.4842 25.4145 24.9114L30.5703 20.6751C32.1421 19.2811 31.2201 17.701 30.7578 17.241ZM18.3291 9.22532H19.1909C19.8619 9.22532 20.4077 9.77141 20.4077 10.4424V20.6575L17.3575 20.6563C17.0773 20.6537 17.2712 20.4687 17.2865 20.4561L18.165 19.7446C18.9845 19.0807 19.5197 18.1577 19.7557 17.0008C19.9055 16.2669 19.6255 15.5322 19.0255 15.0835C18.4651 14.6646 17.7443 14.584 17.1123 14.861V10.4424C17.1123 9.77141 17.6581 9.22532 18.3291 9.22532ZM10.9985 14.1983C10.9985 13.6474 11.4467 13.199 11.9976 13.199H13.2947C13.8456 13.199 14.294 13.6474 14.294 14.1983V16.3505L10.9983 18.0998V14.1983H10.9985ZM29.9567 19.9284L24.8007 24.1647C24.215 24.6461 23.5161 24.9958 22.7797 25.1761L12.1071 27.7892L9.2369 20.1295L17.4321 15.7794C17.7652 15.6024 18.1446 15.6319 18.4464 15.8577C18.7483 16.0836 18.8838 16.4386 18.8085 16.8077C18.6184 17.739 18.1972 18.4744 17.5564 18.9933L16.678 19.7051C16.318 19.9966 16.1853 20.4672 16.3399 20.904C16.4945 21.3406 16.8938 21.6231 17.357 21.6231L20.8791 21.6246H20.8816C22.1354 21.6246 23.3404 21.2434 24.3661 20.5221L28.3023 17.7541C28.8534 17.3664 29.5954 17.4348 30.0662 17.9167C30.3374 18.1937 30.8681 19.0167 29.9567 19.9284Z" fill="white"/>
<path d="M9.53341 28.9261C9.53341 27.876 8.67915 27.0215 7.62901 27.0215C6.57887 27.0215 5.72461 27.876 5.72461 28.9261C5.72461 29.976 6.57887 30.8305 7.62901 30.8305C8.67915 30.8305 9.53341 29.976 9.53341 28.9261ZM6.69141 28.9261C6.69141 28.409 7.11187 27.9883 7.62901 27.9883C8.1459 27.9883 8.56661 28.409 8.56661 28.9261C8.56661 29.443 8.14615 29.8637 7.62901 29.8637C7.11187 29.8637 6.69141 29.443 6.69141 28.9261Z" fill="white"/>
<path d="M4.15304 15.1775L11.18 8.09647L12.7606 8.91397C13.3268 9.20678 14.0159 9.10657 14.4752 8.66446L18.3001 4.98256C18.3001 4.98256 18.1948 6.87361 19.7873 6.87361C20.6071 6.87361 21.2743 6.20642 21.2743 5.3864V1.48696C21.2743 1.48243 21.274 1.47765 21.274 1.47286C21.2687 0.455455 20.5247 0 19.7873 0H15.9218C15.1018 0 14.4349 0.667194 14.4349 1.48696C14.4349 3.12146 16.0983 2.97392 16.0983 2.97392L13.1803 5.78269L11.5768 4.95335C10.9969 4.65324 10.2983 4.76326 9.83804 5.22652L2.04218 13.0825C1.46462 13.6646 1.46814 14.608 2.05024 15.1856C2.33071 15.4638 3.28845 16.0421 4.15304 15.1775ZM2.72826 13.7636L10.5241 5.90757C10.6248 5.80635 10.7865 5.62911 11.1326 5.81214L13.0438 6.8006C13.2279 6.89577 13.452 6.86329 13.6013 6.71953L17.6326 2.83898C17.7746 2.70226 17.8194 2.49279 17.7457 2.31C17.6719 2.12697 17.4947 2.00737 17.2973 2.00737H15.9218C15.6351 2.00737 15.4017 1.77398 15.4017 1.48696C15.4017 1.20019 15.6351 0.966802 15.9218 0.966802H19.7873C19.9295 0.966802 20.3072 0.966802 20.3072 1.48394C20.3072 1.48822 20.3075 1.4925 20.3075 1.49703V5.3864C20.3075 5.67317 20.0741 5.90656 19.7873 5.90656C19.5003 5.90656 19.2669 5.67317 19.2669 5.3864V3.84631C19.2669 3.65245 19.1511 3.47722 18.9728 3.40143C18.7946 3.3254 18.5881 3.36367 18.4484 3.49811L13.8047 7.96806C13.6441 8.12265 13.4029 8.1579 13.205 8.05543L11.3091 7.07478C11.1216 6.97785 10.8927 7.01385 10.7439 7.16365L3.46696 14.4965C3.14973 14.8137 2.82922 14.5967 2.73103 14.4993C2.5276 14.2971 2.52634 13.967 2.72826 13.7636Z" fill="white"/>
</svg>
