<svg width="29" height="33" viewBox="0 0 29 33" fill="none" xmlns="http://www.w3.org/2000/svg">
<path d="M28.1318 14.1017C28.4878 14.1017 28.7764 13.8131 28.7764 13.4572C28.7764 13.1012 28.4878 12.8126 28.1318 12.8126H25.6902V11.0579H28.1318C28.4878 11.0579 28.7764 10.7693 28.7764 10.4134C28.7764 10.0574 28.4878 9.76884 28.1318 9.76884H25.6902V8.71432C25.6902 8.54346 25.6224 8.37962 25.5016 8.25877L23.6378 6.39343C23.517 6.27245 23.353 6.20445 23.1819 6.20445H22.1271V3.76503C22.1271 3.40905 21.8386 3.1205 21.4826 3.1205C21.1266 3.1205 20.8381 3.40905 20.8381 3.76503V6.20445H19.083V3.76503C19.083 3.40905 18.7944 3.1205 18.4385 3.1205C18.0825 3.1205 17.7939 3.40905 17.7939 3.76503V6.20445H16.0407V3.89471C16.0407 1.74713 14.2934 0 12.1455 0C10.3883 0 8.86106 1.18774 8.39526 2.83781C7.05579 2.97393 5.81475 3.56613 4.85704 4.5357C3.77552 5.63075 3.1799 7.08166 3.1799 8.62112C3.1799 9.38508 3.33072 10.1418 3.61993 10.8432C2.7152 11.324 1.93892 12.0154 1.35047 12.8698C0.613317 13.9402 0.223633 15.1952 0.223633 16.4991C0.223633 18.8994 1.53603 21.0523 3.6196 22.1568C3.33072 22.8569 3.18003 23.613 3.18003 24.3771C3.18003 25.9165 3.77564 27.3674 4.85717 28.4625C5.81481 29.4321 7.05586 30.0243 8.39532 30.1604C8.86106 31.8115 10.3884 33 12.1457 33C14.2934 33 16.0408 31.2529 16.0408 29.1053V26.7937H17.7941V29.235C17.7941 29.5909 18.0826 29.8795 18.4386 29.8795C18.7946 29.8795 19.0831 29.5909 19.0831 29.235V26.7937H20.8382V29.235C20.8382 29.5909 21.1267 29.8795 21.4827 29.8795C21.8387 29.8795 22.1273 29.5909 22.1273 29.235V26.7937H23.182C23.353 26.7937 23.5169 26.7259 23.6378 26.605L25.5016 24.7414C25.6224 24.6206 25.6904 24.4566 25.6904 24.2857V23.2293H28.1318C28.4878 23.2293 28.7764 22.9407 28.7764 22.5848C28.7764 22.2288 28.4878 21.9402 28.1318 21.9402H25.6902V20.1874H28.1318C28.4878 20.1874 28.7764 19.8988 28.7764 19.5428C28.7764 19.1869 28.4878 18.8983 28.1318 18.8983H25.6902V17.1436H28.1318C28.4878 17.1436 28.7764 16.8551 28.7764 16.4991C28.7764 16.1431 28.4878 15.8546 28.1318 15.8546H25.6902V14.1017H28.1318ZM12.1457 31.7109C11.0764 31.7109 10.1351 31.0535 9.73878 30.104C10.2089 30.0198 10.6673 29.8768 11.1081 29.6745C11.7487 29.3804 12.3216 28.9779 12.8109 28.4782C13.0599 28.2238 13.0555 27.8157 12.8012 27.5667C12.5468 27.3177 12.1388 27.322 11.8897 27.5763C11.5111 27.9631 11.0672 28.2748 10.5704 28.5028C10.0455 28.7436 9.48916 28.8771 8.91662 28.9003C6.46276 28.8599 4.4691 26.8342 4.4691 24.3769C4.4691 23.6004 4.66858 22.8354 5.04595 22.1643C5.13696 22.0026 5.15378 21.8095 5.09216 21.6345C5.03061 21.4594 4.89655 21.3194 4.72439 21.2503C2.7734 20.4667 1.5127 18.6017 1.5127 16.4991C1.5127 14.3959 2.7732 12.5317 4.72401 11.7498C5.10725 11.5426 5.21469 11.238 5.04634 10.8362C4.66871 10.1632 4.4691 9.3972 4.4691 8.62119C4.4691 6.16385 6.46276 4.13821 8.91662 4.09774C9.48555 4.12087 10.0424 4.25449 10.5703 4.49515C11.0679 4.72358 11.5115 5.03559 11.8887 5.42257C12.0151 5.55212 12.1827 5.61722 12.3504 5.61722C12.5125 5.61722 12.6749 5.55638 12.8002 5.43424C13.0551 5.18577 13.0602 4.77765 12.8118 4.5228C12.3235 4.02194 11.7502 3.61846 11.1065 3.32295C10.6643 3.1214 10.2066 2.9787 9.73872 2.89459C10.135 1.9459 11.0764 1.28906 12.1457 1.28906C13.5826 1.28906 14.7518 2.45798 14.7518 3.89471V11.7969H12.7452L11.0352 10.087C11.2172 9.75479 11.3143 9.38044 11.3143 8.99108C11.3143 8.38032 11.0764 7.80611 10.6444 7.37421C9.7529 6.48282 8.30219 6.48276 7.41061 7.37421C6.97871 7.80611 6.74081 8.38032 6.74081 8.99102C6.74081 9.60171 6.97864 10.1759 7.41061 10.6078C7.85637 11.0535 8.44192 11.2764 9.02748 11.2764C9.40517 11.2764 9.78261 11.1831 10.1229 10.9976L12.0224 12.897C12.1599 13.02 12.3118 13.083 12.4782 13.0858H14.7517V15.8544H10.7126C10.4334 14.9074 9.5558 14.2138 8.51869 14.2138C7.2585 14.2138 6.23331 15.2389 6.23331 16.499C6.23331 17.76 7.2585 18.786 8.51869 18.786C9.55599 18.786 10.4337 18.0916 10.7127 17.1435H14.7517V19.9121H12.4782C12.4609 19.9121 12.4461 19.9131 12.4324 19.9143C12.283 19.9249 12.1365 19.9868 12.0222 20.1011L10.1226 22.002C9.25506 21.5292 8.14376 21.6588 7.41054 22.3919C6.97819 22.8243 6.74036 23.3989 6.74075 24.0101C6.74113 24.6204 6.97929 25.1938 7.41054 25.6238C7.85643 26.0696 8.44205 26.2924 9.02767 26.2924C9.61303 26.2924 10.1984 26.0697 10.6437 25.6244C11.0756 25.1938 11.3138 24.6205 11.3141 24.0102C11.3144 23.6203 11.2173 23.2454 11.0349 22.9127L12.7452 21.2013H14.7516V29.1052C14.7517 30.542 13.5826 31.7109 12.1457 31.7109ZM10.0252 8.99115C10.0252 9.25753 9.92144 9.508 9.73305 9.69639C9.34401 10.0854 8.71114 10.0854 8.3221 9.69639C8.13371 9.508 8.02994 9.25753 8.02994 8.99115C8.02994 8.72476 8.13371 8.47423 8.3221 8.2859C8.71114 7.89699 9.34407 7.89699 9.73305 8.2859C9.92144 8.47423 10.0252 8.7247 10.0252 8.99115ZM9.51681 16.4991C9.51681 17.0493 9.06905 17.497 8.51869 17.497C7.96935 17.497 7.52237 17.0493 7.52237 16.4991C7.52237 15.9499 7.96935 15.503 8.51869 15.503C9.06905 15.503 9.51681 15.9498 9.51681 16.4991ZM10.0252 24.0094C10.025 24.275 9.92151 24.5244 9.73305 24.7123C9.34401 25.1012 8.71108 25.1013 8.32146 24.7117C8.13364 24.5244 8.03007 24.275 8.02994 24.0094C8.02974 23.7429 8.13351 23.4922 8.3221 23.3036C8.71108 22.9148 9.34401 22.9147 9.73292 23.3035C9.73298 23.3036 9.73305 23.3037 9.73311 23.3038L9.73318 23.3039C9.9217 23.4925 10.0254 23.743 10.0252 24.0094ZM24.4012 24.0187L22.915 25.5047H16.0408V23.5947H21.8462C22.2022 23.5947 22.4908 23.3061 22.4908 22.9501V19.3912C22.4908 19.0352 22.2022 18.7466 21.8462 18.7466C21.4903 18.7466 21.2017 19.0352 21.2017 19.3912V22.3056H16.0408V10.6944H21.2017V13.6015C21.2017 13.9575 21.4903 14.246 21.8462 14.246C22.2022 14.246 22.4908 13.9575 22.4908 13.6015V10.0499C22.4908 9.69388 22.2022 9.40532 21.8462 9.40532H16.0408V7.49351H22.9148L24.4012 8.98116V24.0187Z" fill="white"/>
<path d="M21.8467 15.8535C21.4907 15.8535 21.2021 16.1421 21.2021 16.498V16.4999C21.2021 16.8558 21.4907 17.1435 21.8467 17.1435C22.2027 17.1435 22.4912 16.854 22.4912 16.498C22.4912 16.1421 22.2026 15.8535 21.8467 15.8535Z" fill="white"/>
</svg>
