<svg width="72" height="80" viewBox="0 0 72 80" fill="none" xmlns="http://www.w3.org/2000/svg">
<g filter="url(#filter0_d_401_222)">
<path d="M44.0509 31.3231C43.9293 31.2481 43.8212 31.1664 43.7132 31.071C43.2134 30.5327 42.8284 29.8854 42.5853 29.1904H43.2877C43.4565 29.1904 43.6119 29.1223 43.7267 29.0064C43.8415 28.8906 43.909 28.7339 43.909 28.5635V26.608C43.909 26.4377 43.8415 26.281 43.7267 26.1651C43.6119 26.0493 43.4565 25.9812 43.2877 25.9812H42.9365V25.6269C42.9365 25.4565 42.869 25.2998 42.7541 25.184C42.6393 25.0681 42.4772 25 42.3151 25H29.6855C29.5167 25 29.3613 25.0681 29.2465 25.184C29.1317 25.2998 29.0642 25.4565 29.0642 25.6269V25.9812H28.713C28.5441 25.9812 28.3888 26.0493 28.274 26.1651C28.1592 26.281 28.0916 26.4377 28.0916 26.608V28.5704C28.0916 28.7407 28.1592 28.8974 28.274 29.0132C28.3888 29.1291 28.5441 29.1972 28.713 29.1972H29.4154C29.1722 29.8922 28.7805 30.5395 28.2875 31.0778C28.1862 31.1664 28.0714 31.2549 27.9498 31.3299C27.0988 31.8954 25.667 32.863 25.667 36.4061V48.657C25.6805 49.8767 26.0047 51.0895 26.6058 52.1524C26.6328 52.2001 26.6598 52.2478 26.6868 52.2955L26.7138 52.3432C26.7409 52.3909 26.7679 52.4386 26.8016 52.4795C26.8894 52.6089 26.984 52.7384 27.0988 52.8815L27.1191 52.9087C27.9228 53.8831 29.0507 54.4963 30.3001 54.6258C30.3474 54.6326 30.3879 54.6394 30.4352 54.6394C30.6648 54.6667 30.9012 54.6803 31.1376 54.6803H40.8496C41.086 54.6803 41.3223 54.6667 41.552 54.6394C41.5992 54.6326 41.6398 54.6258 41.687 54.6258C42.9365 54.4963 44.0711 53.8899 44.8681 52.9087L44.8884 52.8815C45.0032 52.7384 45.0977 52.6089 45.1855 52.4863C45.2193 52.4386 45.2463 52.3977 45.2733 52.35L45.3071 52.3023C45.3341 52.2546 45.3611 52.2069 45.3881 52.166C45.9892 51.1031 46.3134 49.8971 46.3269 48.6706V36.4061C46.3337 32.863 44.9019 31.8954 44.0509 31.3231ZM44.1927 51.73C44.0171 51.9957 43.8077 52.241 43.5714 52.459C43.4836 52.5408 43.389 52.6226 43.2945 52.6907C43.2809 52.6975 43.2742 52.7043 43.2607 52.7111C43.2472 52.718 43.2337 52.7316 43.2202 52.7384C43.0986 52.827 42.9703 52.9019 42.8352 52.9701C42.8149 52.9837 42.7947 52.9905 42.7744 52.9973C42.7609 53.0041 42.7406 53.0109 42.7271 53.0178C42.5921 53.0791 42.457 53.1336 42.3151 53.1813C42.2611 53.1949 42.2138 53.2153 42.1598 53.229C42.0112 53.2699 41.8626 53.3039 41.7141 53.3312L41.6533 53.338C41.6128 53.3448 41.579 53.3516 41.5385 53.3584C41.3156 53.3857 41.086 53.4061 40.8631 53.4061H31.1443C30.9215 53.4061 30.6918 53.3925 30.4622 53.3584C30.4284 53.3516 30.3947 53.3448 30.3609 53.3448C30.3406 53.338 30.3204 53.338 30.3001 53.338C30.138 53.3107 29.9827 53.2767 29.8273 53.229C29.7868 53.2153 29.7463 53.2017 29.699 53.1881C29.5369 53.1336 29.3816 53.0723 29.233 52.9973C29.2263 52.9905 29.2128 52.9905 29.206 52.9837C29.1992 52.9837 29.1925 52.9769 29.1857 52.9769C28.7197 52.7384 28.3077 52.3977 27.9903 51.9821C27.9836 51.9753 27.9768 51.9684 27.9701 51.9616L27.9633 51.9548C27.9565 51.948 27.9498 51.9412 27.9498 51.9344C27.8958 51.8662 27.8485 51.7981 27.8012 51.7232H44.1927V51.73ZM41.8762 27.0509C41.991 27.1667 42.1463 27.2349 42.3151 27.2349H42.6663V27.9435H29.3343V27.2349H29.6855C29.8544 27.2349 30.0097 27.1667 30.1245 27.0509C30.2393 26.9351 30.3069 26.7784 30.3069 26.608V26.2537H41.6938V26.608C41.6938 26.7715 41.7546 26.9283 41.8762 27.0509ZM35.9936 36.0517H36.0071C37.1417 36.0041 38.2494 36.3175 39.1949 36.958C40.5524 37.98 42.2273 38.5319 43.9226 38.4979H45.0977V44.5961H26.9097V38.4979H28.0781C28.1254 38.4979 28.1659 38.4979 28.2132 38.4979C29.8611 38.4979 31.4888 37.9528 32.8125 36.9512C33.7513 36.3175 34.8589 36.0041 35.9936 36.0517ZM36.23 34.7912C36.1557 34.7912 36.0746 34.7912 36.0003 34.798C34.6023 34.7503 33.2043 35.1592 32.0494 35.97C30.9147 36.8285 29.5032 37.2782 28.0849 37.251H26.9097V36.4061C26.9097 33.5375 27.9565 32.8289 28.6387 32.3656C28.8278 32.2497 28.9966 32.1135 29.1587 31.9636L29.1655 31.9567C29.9016 31.18 30.4352 30.2261 30.7121 29.1904H41.2886C41.5655 30.2261 42.099 31.18 42.8352 31.9567L42.8419 31.9636C43.004 32.1135 43.1796 32.2497 43.362 32.3656C44.0509 32.8357 45.0977 33.5375 45.0977 36.4129V37.2578H43.9226C42.5043 37.285 41.0927 36.8285 39.9513 35.9768C38.864 35.2069 37.5537 34.7912 36.23 34.7912ZM45.091 45.8498V48.6502C45.0707 49.2702 44.9694 49.8835 44.7803 50.4763H27.2204C27.0313 49.8835 26.93 49.2702 26.9097 48.6502V45.8498H45.091Z" fill="#FF3600"/>
<path d="M35.9936 36.0517H36.0071C37.1417 36.0041 38.2494 36.3175 39.1949 36.958C40.5524 37.98 42.2273 38.5319 43.9226 38.4979H45.0977V44.5961H26.9097V38.4979H28.0781H28.2132C29.8611 38.4979 31.4888 37.9528 32.8125 36.9512C33.7513 36.3175 34.8589 36.0041 35.9936 36.0517Z" fill="#FF3600"/>
<path d="M45.091 45.8498V48.6502C45.0707 49.2702 44.9694 49.8835 44.7803 50.4763H27.2204C27.0313 49.8835 26.93 49.2702 26.9097 48.6502V45.8498H45.091Z" fill="#FF3600"/>
<path d="M44.1927 51.73C44.0171 51.9957 43.8077 52.241 43.5714 52.459C43.4836 52.5408 43.389 52.6226 43.2945 52.6907C43.2809 52.6975 43.2742 52.7043 43.2607 52.7111C43.2472 52.718 43.2337 52.7316 43.2202 52.7384C43.0986 52.827 42.9703 52.9019 42.8352 52.9701C42.8149 52.9837 42.7947 52.9905 42.7744 52.9973C42.7609 53.0041 42.7406 53.0109 42.7271 53.0178C42.5921 53.0791 42.457 53.1336 42.3151 53.1813C42.2611 53.1949 42.2138 53.2153 42.1598 53.229C42.0112 53.2699 41.8626 53.3039 41.7141 53.3312L41.6533 53.338C41.6128 53.3448 41.579 53.3516 41.5385 53.3584C41.3156 53.3857 41.086 53.4061 40.8631 53.4061H31.1443C30.9215 53.4061 30.6918 53.3925 30.4622 53.3584C30.4284 53.3516 30.3947 53.3448 30.3609 53.3448C30.3406 53.338 30.3204 53.338 30.3001 53.338C30.138 53.3107 29.9827 53.2767 29.8273 53.229C29.7868 53.2153 29.7463 53.2017 29.699 53.1881C29.5369 53.1336 29.3816 53.0723 29.233 52.9973C29.2263 52.9905 29.2128 52.9905 29.206 52.9837C29.1992 52.9837 29.1925 52.9769 29.1857 52.9769C28.7197 52.7384 28.3077 52.3977 27.9903 51.9821L27.9701 51.9616L27.9633 51.9548C27.9565 51.948 27.9498 51.9412 27.9498 51.9344C27.8958 51.8662 27.8485 51.7981 27.8012 51.7232H44.1927V51.73Z" fill="#FF3600"/>
</g>
<defs>
<filter id="filter0_d_401_222" x="0.666992" y="0" width="70.6602" height="79.6797" filterUnits="userSpaceOnUse" color-interpolation-filters="sRGB">
<feFlood flood-opacity="0" result="BackgroundImageFix"/>
<feColorMatrix in="SourceAlpha" type="matrix" values="0 0 0 0 0 0 0 0 0 0 0 0 0 0 0 0 0 0 127 0" result="hardAlpha"/>
<feOffset/>
<feGaussianBlur stdDeviation="12.5"/>
<feComposite in2="hardAlpha" operator="out"/>
<feColorMatrix type="matrix" values="0 0 0 0 1 0 0 0 0 0.211765 0 0 0 0 0 0 0 0 0.5 0"/>
<feBlend mode="normal" in2="BackgroundImageFix" result="effect1_dropShadow_401_222"/>
<feBlend mode="normal" in="SourceGraphic" in2="effect1_dropShadow_401_222" result="shape"/>
</filter>
</defs>
</svg>
