<svg width="80" height="81" viewBox="0 0 80 81" fill="none" xmlns="http://www.w3.org/2000/svg">
<g filter="url(#filter0_d_401_221)">
<path d="M53.1494 35.3633V31.8906C53.1494 31.5451 52.8699 31.2656 52.5244 31.2656H51.1617L50.0122 25.5179C49.9536 25.2262 49.6973 25.0156 49.3994 25.0156H48.1494C47.8516 25.0156 47.5953 25.2262 47.5367 25.5179L46.3871 31.2657H45.0244C44.6789 31.2657 44.3994 31.5452 44.3994 31.8907V35.3633C43.6558 35.7969 43.1494 36.5942 43.1494 37.5156V52.5156C43.1494 53.8944 44.2707 55.0156 45.6494 55.0156H51.8994C53.2782 55.0156 54.3995 53.8944 54.3995 52.5156V37.5156C54.3994 36.5942 53.893 35.7969 53.1494 35.3633ZM48.6615 26.2656H48.8873L49.8871 31.2656H47.6618L48.6615 26.2656ZM45.6494 32.5156H51.8994V35.0157H45.6494V32.5156ZM53.1494 52.5156C53.1494 53.2047 52.5885 53.7656 51.8994 53.7656H45.6494C44.9604 53.7656 44.3994 53.2047 44.3994 52.5156V37.5156C44.3994 36.8266 44.9604 36.2656 45.6494 36.2656H51.8994C52.5885 36.2656 53.1494 36.8266 53.1494 37.5156V52.5156Z" fill="white"/>
<path d="M53.1494 52.5156C53.1494 53.2047 52.5885 53.7656 51.8994 53.7656H45.6494C44.9604 53.7656 44.3994 53.2047 44.3994 52.5156V37.5156C44.3994 36.8266 44.9604 36.2656 45.6494 36.2656H51.8994C52.5885 36.2656 53.1494 36.8266 53.1494 37.5156V52.5156Z" fill="white"/>
<path fill-rule="evenodd" clip-rule="evenodd" d="M28.0951 25H35.5819C36.9583 25 38.0775 26.1192 38.0775 27.4956V41.4034C38.0775 41.7884 37.9867 42.1741 37.8143 42.519L35.0896 47.9677C35.0037 48.1401 34.958 48.3332 34.958 48.5258V51.2035C35.3029 51.2035 35.5819 51.4826 35.5819 51.8274V54.323C35.5819 54.6679 35.3029 54.9469 34.958 54.9469H28.7191C28.3742 54.9469 28.0951 54.6679 28.0951 54.3231V51.8275C28.0951 51.4826 28.3742 51.2036 28.7191 51.2036V48.5258C28.7191 48.3332 28.6734 48.1401 28.5875 47.9671L25.8628 42.5196C25.6904 42.1742 25.5996 41.7885 25.5996 41.4034V27.4956C25.5996 26.1192 26.7188 25 28.0951 25ZM29.343 53.6992H34.3341V52.4514H29.343V53.6992ZM28.9164 28.3496H34.7497C35.0721 28.3496 35.333 28.6019 35.333 28.9137V39.6316C35.333 41.4981 33.763 43.0163 31.833 43.0163C29.903 43.0163 28.333 41.4981 28.333 39.6316V28.9137C28.333 28.6019 28.5939 28.3496 28.9164 28.3496ZM34.1664 39.6316C34.1664 40.8761 33.1199 41.8881 31.833 41.8881C30.5461 41.8881 29.4997 40.8761 29.4997 39.6316V29.4778H34.1664V39.6316Z" fill="white"/>
</g>
<defs>
<filter id="filter0_d_401_221" x="0.599609" y="0" width="78.7998" height="80.0156" filterUnits="userSpaceOnUse" color-interpolation-filters="sRGB">
<feFlood flood-opacity="0" result="BackgroundImageFix"/>
<feColorMatrix in="SourceAlpha" type="matrix" values="0 0 0 0 0 0 0 0 0 0 0 0 0 0 0 0 0 0 127 0" result="hardAlpha"/>
<feOffset/>
<feGaussianBlur stdDeviation="12.5"/>
<feComposite in2="hardAlpha" operator="out"/>
<feColorMatrix type="matrix" values="0 0 0 0 1 0 0 0 0 1 0 0 0 0 1 0 0 0 0.5 0"/>
<feBlend mode="normal" in2="BackgroundImageFix" result="effect1_dropShadow_401_221"/>
<feBlend mode="normal" in="SourceGraphic" in2="effect1_dropShadow_401_221" result="shape"/>
</filter>
</defs>
</svg>
