<svg width="76" height="80" viewBox="0 0 76 80" fill="none" xmlns="http://www.w3.org/2000/svg">
<g filter="url(#filter0_d_401_220)">
<path d="M46.9536 32.8359L47.7296 31.5433C47.8177 31.352 47.8082 31.125 47.7045 30.9431C47.6008 30.7613 47.4177 30.6505 47.2204 30.6504H42.6671C42.4698 30.6505 42.2867 30.7612 42.183 30.943C42.0794 31.1249 42.0698 31.352 42.158 31.5432L42.9339 32.8358C41.1165 33.2795 39.8244 35.0276 39.8213 37.0469V48.6036C39.8244 50.6229 41.1165 52.371 42.9339 52.8147L42.158 54.1073C42.0698 54.2986 42.0793 54.5256 42.183 54.7075C42.2868 54.8893 42.4698 55.0001 42.6671 55.0002H47.2204C47.4176 55.0001 47.6007 54.8893 47.7044 54.7075C47.808 54.5257 47.8176 54.2986 47.7295 54.1073L46.9536 52.8148C48.771 52.3711 50.0632 50.623 50.0662 48.6036V37.047C50.0632 35.0277 48.771 33.2796 46.9536 32.8359ZM46.2994 31.8843L45.7303 32.7286H44.1573L43.5882 31.8843H46.2994ZM43.5881 53.7663L44.1572 52.9221H45.7302L46.2993 53.7663H43.5881ZM48.9279 48.6036C48.926 50.3064 47.653 51.6863 46.082 51.6883H43.8054C42.2344 51.6863 40.9615 50.3064 40.9596 48.6036V37.047C40.9615 35.3442 42.2344 33.9644 43.8054 33.9624H46.082C47.653 33.9644 48.926 35.3442 48.9279 37.047V48.6036Z" fill="white"/>
<path d="M48.9279 48.6036C48.926 50.3064 47.653 51.6863 46.082 51.6883H43.8054C42.2344 51.6863 40.9615 50.3064 40.9596 48.6036V37.047C40.9615 35.3442 42.2344 33.9644 43.8054 33.9624H46.082C47.653 33.9644 48.926 35.3442 48.9279 37.047V48.6036Z" fill="white"/>
</g>
<g filter="url(#filter1_d_401_220)">
<path fill-rule="evenodd" clip-rule="evenodd" d="M33.1244 25.6051V27.3524C35.3806 28.122 36.8901 30.1752 36.8943 32.4802V47.5198C36.8902 49.8248 35.3807 51.878 33.1245 52.6476V54.3949C33.1245 54.5554 33.0583 54.7094 32.9405 54.8228C32.8227 54.9363 32.6628 55.0001 32.4962 55H29.983C29.8164 55 29.6565 54.9363 29.5387 54.8228C29.4208 54.7093 29.3546 54.5554 29.3547 54.3949V52.6476C27.0985 51.8781 25.5891 49.8248 25.585 47.5198V32.4802C25.5891 30.1752 27.0985 28.122 29.3546 27.3524V25.6051C29.3546 25.4446 29.4208 25.2906 29.5386 25.1772C29.6565 25.0637 29.8164 24.9999 29.983 25H32.4961C32.6628 25 32.8227 25.0637 32.9405 25.1772C33.0583 25.2907 33.1245 25.4446 33.1244 25.6051ZM31.8679 26.2102H30.6113V27.0704C30.8095 27.0489 31.0088 27.0375 31.2083 27.0362C31.23 27.0361 31.252 27.0362 31.2737 27.0363C31.4723 27.0377 31.6706 27.049 31.8679 27.0704V26.2102ZM30.6113 53.7899H31.8678L31.8679 52.9299L31.8653 52.93C31.6637 52.952 31.4612 52.9634 31.2584 52.9644C31.2466 52.9646 31.2346 52.9647 31.2228 52.9646C31.0185 52.9636 30.8144 52.9519 30.6113 52.9297V53.7899ZM32.3388 51.616C34.2781 51.1325 35.6338 49.449 35.6376 47.5199L35.6377 32.4802C35.6339 30.5513 34.2785 28.868 32.3395 28.3843L32.3385 28.3842C32.1672 28.3416 31.9935 28.3088 31.8182 28.2857C31.8105 28.2847 31.8029 28.2835 31.7953 28.2823C31.7872 28.281 31.7791 28.2797 31.7708 28.2788C31.4188 28.235 31.0624 28.2349 30.7103 28.2785C30.7011 28.2796 30.692 28.281 30.6829 28.2825C30.6748 28.2838 30.6666 28.2851 30.6584 28.2861C30.4841 28.3091 30.3112 28.3419 30.1408 28.3842L30.139 28.3844C28.2004 28.8684 26.8453 30.5516 26.8416 32.4802V47.5199C26.8452 49.449 28.2009 51.1325 30.1402 51.616C30.3129 51.6586 30.4881 51.6917 30.6647 51.7149C30.6714 51.7157 30.6781 51.7168 30.6847 51.7178C30.6921 51.719 30.6996 51.7202 30.7071 51.7211C31.0604 51.7651 31.4181 51.7651 31.7714 51.7212C31.7761 51.7206 31.7807 51.72 31.7853 51.7193C31.796 51.7177 31.8066 51.7158 31.8173 51.7144C31.993 51.6913 32.1671 51.6584 32.3388 51.616Z" fill="white"/>
<path d="M32.3388 51.616C34.2781 51.1325 35.6338 49.449 35.6376 47.5199L35.6377 32.4802C35.6339 30.5513 34.2785 28.868 32.3395 28.3843L32.3385 28.3842C32.1672 28.3416 31.9935 28.3088 31.8182 28.2857C31.8105 28.2847 31.8029 28.2835 31.7953 28.2823C31.7872 28.281 31.7791 28.2797 31.7708 28.2788C31.4188 28.235 31.0624 28.2349 30.7103 28.2785C30.7011 28.2796 30.692 28.281 30.6829 28.2825C30.6748 28.2838 30.6666 28.2851 30.6584 28.2861C30.4841 28.3091 30.3112 28.3419 30.1408 28.3842L30.139 28.3844C28.2004 28.8684 26.8453 30.5516 26.8416 32.4802V47.5199C26.8452 49.449 28.2009 51.1325 30.1402 51.616C30.3129 51.6586 30.4881 51.6917 30.6647 51.7149C30.6714 51.7157 30.6781 51.7168 30.6847 51.7178C30.6921 51.719 30.6996 51.7202 30.7071 51.7211C31.0604 51.7651 31.4181 51.7651 31.7714 51.7212C31.7761 51.7206 31.7807 51.72 31.7853 51.7193C31.796 51.7177 31.8066 51.7158 31.8173 51.7144C31.993 51.6913 32.1671 51.6584 32.3388 51.616Z" fill="white"/>
</g>
<defs>
<filter id="filter0_d_401_220" x="14.8213" y="5.65039" width="60.2451" height="74.3496" filterUnits="userSpaceOnUse" color-interpolation-filters="sRGB">
<feFlood flood-opacity="0" result="BackgroundImageFix"/>
<feColorMatrix in="SourceAlpha" type="matrix" values="0 0 0 0 0 0 0 0 0 0 0 0 0 0 0 0 0 0 127 0" result="hardAlpha"/>
<feOffset/>
<feGaussianBlur stdDeviation="12.5"/>
<feComposite in2="hardAlpha" operator="out"/>
<feColorMatrix type="matrix" values="0 0 0 0 1 0 0 0 0 1 0 0 0 0 1 0 0 0 0.5 0"/>
<feBlend mode="normal" in2="BackgroundImageFix" result="effect1_dropShadow_401_220"/>
<feBlend mode="normal" in="SourceGraphic" in2="effect1_dropShadow_401_220" result="shape"/>
</filter>
<filter id="filter1_d_401_220" x="0.584961" y="0" width="61.3096" height="80" filterUnits="userSpaceOnUse" color-interpolation-filters="sRGB">
<feFlood flood-opacity="0" result="BackgroundImageFix"/>
<feColorMatrix in="SourceAlpha" type="matrix" values="0 0 0 0 0 0 0 0 0 0 0 0 0 0 0 0 0 0 127 0" result="hardAlpha"/>
<feOffset/>
<feGaussianBlur stdDeviation="12.5"/>
<feComposite in2="hardAlpha" operator="out"/>
<feColorMatrix type="matrix" values="0 0 0 0 1 0 0 0 0 1 0 0 0 0 1 0 0 0 0.5 0"/>
<feBlend mode="normal" in2="BackgroundImageFix" result="effect1_dropShadow_401_220"/>
<feBlend mode="normal" in="SourceGraphic" in2="effect1_dropShadow_401_220" result="shape"/>
</filter>
</defs>
</svg>
