<svg width="26" height="30" viewBox="0 0 26 30" fill="none" xmlns="http://www.w3.org/2000/svg">
<path d="M21.9536 7.83586L22.7296 6.54332C22.8177 6.35202 22.8082 6.12499 22.7045 5.94312C22.6008 5.76129 22.4177 5.65052 22.2204 5.65039H17.6671C17.4698 5.65046 17.2867 5.76122 17.183 5.94302C17.0794 6.12486 17.0698 6.35196 17.158 6.54322L17.9339 7.83576C16.1165 8.27946 14.8244 10.0276 14.8213 12.0469V23.6036C14.8244 25.6229 16.1165 27.371 17.9339 27.8147L17.158 29.1073C17.0698 29.2986 17.0793 29.5256 17.183 29.7075C17.2868 29.8893 17.4698 30.0001 17.6671 30.0002H22.2204C22.4176 30.0001 22.6007 29.8893 22.7044 29.7075C22.808 29.5257 22.8176 29.2986 22.7295 29.1073L21.9536 27.8148C23.771 27.3711 25.0632 25.623 25.0662 23.6036V12.047C25.0632 10.0277 23.771 8.27959 21.9536 7.83586ZM21.2994 6.88432L20.7303 7.72856H19.1573L18.5882 6.88432H21.2994ZM18.5881 28.7663L19.1572 27.9221H20.7302L21.2993 28.7663H18.5881ZM23.9279 23.6036C23.926 25.3064 22.653 26.6863 21.082 26.6883H18.8054C17.2344 26.6863 15.9615 25.3064 15.9596 23.6036V12.047C15.9615 10.3442 17.2344 8.96439 18.8054 8.96236H21.082C22.653 8.96439 23.926 10.3442 23.9279 12.047V23.6036Z" fill="white"/>
<path fill-rule="evenodd" clip-rule="evenodd" d="M8.12444 0.605107V2.35237C10.3806 3.12198 11.8901 5.1752 11.8943 7.4802V22.5198C11.8902 24.8248 10.3807 26.878 8.12454 27.6476V29.3949C8.12454 29.5554 8.05834 29.7094 7.94052 29.8228C7.82266 29.9363 7.66281 30.0001 7.49619 30H4.98305C4.81637 30 4.65651 29.9363 4.53872 29.8228C4.42083 29.7093 4.35463 29.5554 4.35469 29.3949V27.6476C2.09853 26.8781 0.589085 24.8248 0.584961 22.5198V7.4802C0.589085 5.1752 2.09853 3.12198 4.35463 2.35237V0.605107C4.35463 0.444577 4.42083 0.290642 4.53862 0.177193C4.65651 0.0636733 4.81637 -7.07873e-05 4.98298 5.89917e-08H7.49612C7.6628 5.89917e-08 7.82266 0.0637444 7.94045 0.177193C8.05834 0.290713 8.12454 0.44465 8.12444 0.605107ZM6.86794 1.21022H5.61133V2.07038C5.80953 2.0489 6.00885 2.03748 6.2083 2.0362C6.23002 2.03606 6.25201 2.0362 6.27374 2.03635C6.47233 2.03769 6.6706 2.04904 6.86794 2.07038V1.21022ZM5.61133 28.7899H6.86784L6.86794 27.9299L6.86527 27.93C6.66374 27.952 6.46119 27.9634 6.25844 27.9644C6.24657 27.9646 6.23457 27.9647 6.22281 27.9646C6.01848 27.9636 5.81438 27.9519 5.61133 27.9297V28.7899ZM7.33884 26.616C9.27812 26.1325 10.6338 24.449 10.6376 22.5199L10.6377 7.4802C10.6339 5.55127 9.27849 3.86797 7.3395 3.38427C7.16817 3.3417 6.99347 3.30882 6.81816 3.2857C6.81047 3.28474 6.80293 3.28354 6.79534 3.28233C6.7872 3.28104 6.77909 3.27974 6.77082 3.27875C6.41879 3.235 6.06236 3.23486 5.71033 3.27847C5.7011 3.27956 5.692 3.28102 5.68287 3.28248C5.67476 3.28379 5.66662 3.28509 5.65844 3.28613C5.48408 3.3091 5.3112 3.34187 5.14076 3.3842L5.13898 3.3844C3.20039 3.8684 1.84531 5.55157 1.84159 7.4802V22.5199C1.84524 24.449 3.20095 26.1325 5.14023 26.616C5.31291 26.6586 5.48807 26.6917 5.66471 26.7149C5.67143 26.7157 5.67806 26.7168 5.68465 26.7178C5.6921 26.719 5.69955 26.7202 5.7071 26.7211C6.06038 26.7651 6.41807 26.7651 6.77141 26.7212C6.77606 26.7206 6.78067 26.72 6.78526 26.7193C6.79597 26.7177 6.80658 26.7158 6.81733 26.7144C6.99301 26.6913 7.16715 26.6584 7.33884 26.616Z" fill="white"/>
</svg>
