<svg width="30" height="30" viewBox="0 0 30 30" fill="none" xmlns="http://www.w3.org/2000/svg">
<path d="M28.1494 10.3477V6.87497C28.1494 6.5295 27.8699 6.24997 27.5244 6.24997H26.1617L25.0122 0.502323C24.9536 0.210586 24.6973 0 24.3994 0H23.1494C22.8516 0 22.5953 0.210586 22.5367 0.502323L21.3871 6.25003H20.0244C19.6789 6.25003 19.3994 6.52957 19.3994 6.87503V10.3477C18.6558 10.7813 18.1494 11.5786 18.1494 12.5V27.5C18.1494 28.8788 19.2707 30 20.6494 30H26.8994C28.2782 30 29.3995 28.8788 29.3995 27.5V12.5C29.3994 11.5786 28.893 10.7813 28.1494 10.3477ZM23.6615 1.24998H23.8873L24.8871 6.24997H22.6618L23.6615 1.24998ZM20.6494 7.5H26.8994V10H20.6494V7.5ZM28.1494 27.5C28.1494 28.189 27.5885 28.75 26.8994 28.75H20.6494C19.9604 28.75 19.3994 28.189 19.3994 27.5V12.5C19.3994 11.8109 19.9604 11.25 20.6494 11.25H26.8994C27.5885 11.25 28.1494 11.8109 28.1494 12.5V27.5Z" fill="white"/>
<path d="M10.5819 -0.015625H3.09515C1.71882 -0.015625 0.599609 1.10358 0.599609 2.47997V16.3878C0.599609 16.7728 0.690386 17.1585 0.862816 17.504L3.58748 22.9514C3.67338 23.1245 3.71908 23.3176 3.71908 23.5101V26.1879C3.37421 26.1879 3.09515 26.467 3.09515 26.8119V29.3075C3.09515 29.6523 3.37421 29.9313 3.71908 29.9313H9.95804C10.3029 29.9313 10.5819 29.6523 10.5819 29.3074V26.8118C10.5819 26.4669 10.3029 26.1879 9.95804 26.1879V23.5101C9.95804 23.3176 10.0037 23.1245 10.0896 22.952L12.8143 17.5033C12.9867 17.1585 13.0775 16.7728 13.0775 16.3877V2.47997C13.0775 1.10358 11.9583 -0.015625 10.5819 -0.015625ZM9.33411 28.6835H4.34298V27.4358H9.33411V28.6835ZM11.8297 16.3878C11.8297 16.5804 11.784 16.7735 11.6981 16.9459L8.97348 22.3946C8.80104 22.7395 8.71028 23.1252 8.71028 23.5102V26.1879H4.96691V23.5102C4.96691 23.1252 4.87611 22.7395 4.70368 22.394L1.97898 16.9465C1.89306 16.7735 1.84738 16.5804 1.84738 16.3878V2.47997C1.84738 1.79213 2.40731 1.2322 3.09515 1.2322H10.5819C11.2697 1.2322 11.8296 1.79213 11.8296 2.47997L11.8297 16.3878Z" fill="white"/>
<path fill-rule="evenodd" clip-rule="evenodd" d="M9.74971 3.33398H3.91637C3.59391 3.33398 3.33301 3.58628 3.33301 3.89812V14.616C3.33301 16.4824 4.90297 18.0006 6.83301 18.0006C8.76304 18.0006 10.333 16.4824 10.333 14.616V3.89805C10.333 3.58628 10.0721 3.33398 9.74971 3.33398ZM6.83301 16.8724C8.11991 16.8724 9.16637 15.8604 9.16637 14.616V4.46218H4.49971V14.616C4.49971 15.8604 5.54611 16.8724 6.83301 16.8724Z" fill="white"/>
</svg>
