<svg width="22" height="30" viewBox="0 0 22 30" fill="none" xmlns="http://www.w3.org/2000/svg">
<path d="M19.0509 6.32307C18.9293 6.24813 18.8212 6.16637 18.7132 6.07097C18.2134 5.5327 17.8284 4.8854 17.5853 4.1904H18.2877C18.4565 4.1904 18.6119 4.12227 18.7267 4.00643C18.8415 3.8906 18.909 3.73387 18.909 3.56353V1.60802C18.909 1.43768 18.8415 1.28097 18.7267 1.16514C18.6119 1.0493 18.4565 0.981167 18.2877 0.981167H17.9365V0.626857C17.9365 0.456513 17.869 0.299801 17.7541 0.183969C17.6393 0.0681367 17.4772 0 17.3151 0H4.68552C4.51666 0 4.36132 0.0681367 4.24652 0.183969C4.13169 0.299801 4.06416 0.456513 4.06416 0.626857V0.981167H3.71296C3.54412 0.981167 3.38879 1.0493 3.27396 1.16514C3.15916 1.28097 3.09162 1.43768 3.09162 1.60802V3.57037C3.09162 3.7407 3.15916 3.8974 3.27396 4.01323C3.38879 4.12907 3.54412 4.1972 3.71296 4.1972H4.41536C4.17222 4.8922 3.78049 5.5395 3.28746 6.07777C3.18616 6.16637 3.07136 6.25493 2.94979 6.3299C2.09879 6.89543 0.666992 7.86297 0.666992 11.4061V23.657C0.680492 24.8767 1.00469 26.0895 1.60576 27.1524C1.63279 27.2001 1.65979 27.2478 1.68683 27.2955L1.71383 27.3432C1.74086 27.3909 1.76786 27.4386 1.80163 27.4795C1.88943 27.6089 1.98399 27.7384 2.09879 27.8815L2.11906 27.9087C2.92276 28.8831 4.05066 29.4963 5.30009 29.6258C5.34739 29.6326 5.38789 29.6394 5.43519 29.6394C5.66482 29.6667 5.90119 29.6803 6.13759 29.6803H15.8496C16.086 29.6803 16.3223 29.6667 16.552 29.6394C16.5992 29.6326 16.6398 29.6258 16.687 29.6258C17.9365 29.4963 19.0711 28.8899 19.8681 27.9087L19.8884 27.8815C20.0032 27.7384 20.0977 27.6089 20.1855 27.4863C20.2193 27.4386 20.2463 27.3977 20.2733 27.35L20.3071 27.3023C20.3341 27.2546 20.3611 27.2069 20.3881 27.166C20.9892 26.1031 21.3134 24.8971 21.3269 23.6706V11.4061C21.3337 7.86297 19.9019 6.89543 19.0509 6.32307ZM19.1927 26.73C19.0171 26.9957 18.8077 27.241 18.5714 27.459C18.4836 27.5408 18.389 27.6226 18.2945 27.6907C18.2809 27.6975 18.2742 27.7043 18.2607 27.7111C18.2472 27.718 18.2337 27.7316 18.2202 27.7384C18.0986 27.827 17.9703 27.9019 17.8352 27.9701C17.8149 27.9837 17.7947 27.9905 17.7744 27.9973C17.7609 28.0041 17.7406 28.0109 17.7271 28.0178C17.5921 28.0791 17.457 28.1336 17.3151 28.1813C17.2611 28.1949 17.2138 28.2153 17.1598 28.229C17.0112 28.2699 16.8626 28.3039 16.7141 28.3312L16.6533 28.338C16.6128 28.3448 16.579 28.3516 16.5385 28.3584C16.3156 28.3857 16.086 28.4061 15.8631 28.4061H6.14432C5.92146 28.4061 5.69182 28.3925 5.46219 28.3584C5.42842 28.3516 5.39466 28.3448 5.36089 28.3448C5.34062 28.338 5.32036 28.338 5.30009 28.338C5.13802 28.3107 4.98269 28.2767 4.82733 28.229C4.78683 28.2153 4.74629 28.2017 4.69902 28.1881C4.53692 28.1336 4.38159 28.0723 4.23299 27.9973C4.22626 27.9905 4.21276 27.9905 4.20599 27.9837C4.19923 27.9837 4.19249 27.9769 4.18572 27.9769C3.71973 27.7384 3.30773 27.3977 2.99029 26.9821C2.98356 26.9753 2.97679 26.9684 2.97006 26.9616L2.96329 26.9548C2.95653 26.948 2.94979 26.9412 2.94979 26.9344C2.89576 26.8662 2.84846 26.7981 2.80119 26.7232H19.1927V26.73ZM16.8762 2.05091C16.991 2.16674 17.1463 2.23488 17.3151 2.23488H17.6663V2.9435H4.33433V2.23488H4.68552C4.85436 2.23488 5.00969 2.16674 5.12449 2.05091C5.23932 1.93508 5.30686 1.77836 5.30686 1.60802V1.25371H16.6938V1.60802C16.6938 1.77155 16.7546 1.92826 16.8762 2.05091ZM10.9936 11.0517H11.0071C12.1417 11.0041 13.2494 11.3175 14.1949 11.958C15.5524 12.98 17.2273 13.5319 18.9226 13.4979H20.0977V19.5961H1.90969V13.4979H3.07809C3.12539 13.4979 3.16589 13.4979 3.21319 13.4979C4.86112 13.4979 6.48879 12.9528 7.81252 11.9512C8.75129 11.3175 9.85892 11.0041 10.9936 11.0517ZM11.23 9.79123C11.1557 9.79123 11.0746 9.79123 11.0003 9.79803C9.60229 9.75033 8.20426 10.1592 7.04936 10.97C5.91469 11.8285 4.50316 12.2782 3.08486 12.251H1.90969V11.4061C1.90969 8.5375 2.95653 7.8289 3.63866 7.36557C3.82779 7.24973 3.99663 7.11347 4.15873 6.96357L4.16546 6.95673C4.90162 6.18 5.43519 5.22607 5.71209 4.1904H16.2886C16.5655 5.22607 17.099 6.18 17.8352 6.95673L17.8419 6.96357C18.004 7.11347 18.1796 7.24973 18.362 7.36557C19.0509 7.8357 20.0977 8.5375 20.0977 11.4129V12.2578H18.9226C17.5043 12.285 16.0927 11.8285 14.9513 10.9768C13.864 10.2069 12.5537 9.79123 11.23 9.79123ZM20.091 20.8498V23.6502C20.0707 24.2702 19.9694 24.8835 19.7803 25.4763H2.22036C2.03126 24.8835 1.92996 24.2702 1.90969 23.6502V20.8498H20.091Z" fill="white"/>
</svg>
