<svg width="13" height="30" viewBox="0 0 13 30" fill="none" xmlns="http://www.w3.org/2000/svg">
<path fill-rule="evenodd" clip-rule="evenodd" d="M9.982 29.9473L2.49527 29.9473C1.11887 29.9473 -0.000327012 28.8281 -0.000326892 27.4517L-0.000325676 13.5439C-0.000325643 13.1589 0.0904403 12.7732 0.262873 12.4283L2.98751 6.97959C3.07344 6.80716 3.11911 6.61403 3.11911 6.42149L3.11911 3.74376C2.77428 3.74376 2.49521 3.46469 2.49521 3.11983L2.49521 0.624229C2.49521 0.279363 2.77428 0.000327216 3.11911 0.000327246L9.35807 0.000327791C9.70294 0.000327821 9.982 0.279362 9.982 0.624161L9.982 3.11976C9.982 3.46463 9.70294 3.74369 9.35807 3.74369L9.35807 6.4215C9.35807 6.61403 9.40377 6.80716 9.48967 6.98019L12.2143 12.4277C12.3868 12.7731 12.4775 13.1588 12.4775 13.5438L12.4775 27.4517C12.4775 28.8281 11.3583 29.9473 9.982 29.9473ZM8.73417 1.24809L3.74304 1.24809L3.74304 2.49586L8.73417 2.49586L8.73417 1.24809ZM9.16077 26.5977L3.32744 26.5977C3.00501 26.5977 2.74414 26.3454 2.74414 26.0336L2.74414 15.3156C2.74414 13.4492 4.31411 11.931 6.24414 11.931C8.17418 11.931 9.74414 13.4492 9.74414 15.3156L9.74414 26.0335C9.74414 26.3454 9.48324 26.5977 9.16077 26.5977ZM3.91078 15.3156C3.91078 14.0712 4.95724 13.0592 6.24414 13.0592C7.53104 13.0592 8.57744 14.0712 8.57744 15.3156L8.57744 25.4695L3.91077 25.4695L3.91078 15.3156Z" fill="white"/>
</svg>
