<svg width="16" height="12" viewBox="0 0 16 12" fill="none" xmlns="http://www.w3.org/2000/svg">
<path d="M15.3039 6.61247C14.8399 6.026 14.247 5.64587 13.5246 5.47185C13.7526 5.12392 13.8663 4.73665 13.8663 4.31014C13.8663 3.71521 13.6579 3.20735 13.2414 2.78639C12.8248 2.36557 12.322 2.15507 11.7331 2.15507C11.2053 2.15507 10.7442 2.32907 10.3499 2.67706C10.0223 1.86886 9.49846 1.22067 8.77909 0.732481C8.05973 0.244141 7.26664 0 6.39988 0C5.22219 0 4.21658 0.421025 3.38324 1.26287C2.54984 2.1045 2.13327 3.12043 2.13327 4.31023C2.13327 4.38318 2.13885 4.50387 2.14994 4.67217C1.49441 4.98085 0.972244 5.44384 0.583259 6.06112C0.19442 6.67858 0 7.35191 0 8.08165C0 9.11995 0.365343 10.0079 1.09583 10.7459C1.82634 11.4841 2.70553 11.853 3.73329 11.853H12.8001C13.6833 11.853 14.4374 11.5372 15.0625 10.906C15.6875 10.2747 16 9.51288 16 8.62035C15.9999 7.86832 15.7679 7.19911 15.3039 6.61247ZM10.5833 6.93657L7.65828 9.89165C7.60834 9.94198 7.54442 9.96731 7.46661 9.96731C7.38885 9.96731 7.32493 9.94198 7.27493 9.89165L4.34168 6.92829C4.29168 6.87784 4.26673 6.81327 4.26673 6.73466C4.26673 6.66171 4.29299 6.59855 4.34577 6.54527C4.39865 6.49196 4.46103 6.46534 4.53324 6.46534H6.39991V3.50212C6.39991 3.42917 6.42633 3.36602 6.47907 3.31262C6.53187 3.2594 6.59433 3.23277 6.66654 3.23277H8.2667C8.33903 3.23277 8.40123 3.25931 8.45429 3.31262C8.50695 3.36602 8.5333 3.42917 8.5333 3.50212V6.46534H10.4C10.4778 6.46534 10.5417 6.49055 10.5915 6.541C10.6416 6.59145 10.6663 6.65602 10.6663 6.73463C10.6663 6.80227 10.6388 6.86935 10.5833 6.93657Z" fill="white"/>
</svg>
