<svg width="31" height="30" viewBox="0 0 31 30" fill="none" xmlns="http://www.w3.org/2000/svg">
<path d="M26.7727 0H4.22727C3.10613 0 2.03091 0.431005 1.23814 1.1982C0.445372 1.96539 0 3.00593 0 4.09091L0 25.9091C0 26.9941 0.445372 28.0346 1.23814 28.8018C2.03091 29.569 3.10613 30 4.22727 30H26.7727C27.8939 30 28.9691 29.569 29.7619 28.8018C30.5546 28.0346 31 26.9941 31 25.9091V4.09091C31 3.00593 30.5546 1.96539 29.7619 1.1982C28.9691 0.431005 27.8939 0 26.7727 0V0ZM20.4107 13.2256L20.0989 15.8369C20.0864 15.9563 20.0287 16.067 19.9371 16.1478C19.8454 16.2287 19.7262 16.2739 19.6022 16.275H16.784L16.7699 24.0222C16.7709 24.114 16.7345 24.2024 16.6686 24.2685C16.6026 24.3345 16.5125 24.3728 16.4177 24.375H13.5625C13.515 24.375 13.468 24.3658 13.4244 24.3478C13.3807 24.3298 13.3412 24.3035 13.3083 24.2704C13.2754 24.2373 13.2497 24.1981 13.2329 24.1551C13.216 24.1122 13.2083 24.0664 13.2102 24.0205V16.275H11.0966C11.0302 16.2743 10.9646 16.261 10.9035 16.2358C10.8425 16.2106 10.7871 16.174 10.7407 16.1281C10.6942 16.0822 10.6576 16.0279 10.6328 15.9683C10.6081 15.9087 10.5957 15.8449 10.5964 15.7807L10.5858 13.1676C10.5849 13.1031 10.5971 13.0391 10.6217 12.9792C10.6463 12.9193 10.6829 12.8647 10.7294 12.8185C10.7758 12.7723 10.8312 12.7353 10.8924 12.7099C10.9536 12.6844 11.0194 12.6708 11.086 12.6699H13.2102V10.1472C13.2102 7.21875 15.0068 5.625 17.6418 5.625H19.8012C19.868 5.62567 19.934 5.63908 19.9954 5.66448C20.0568 5.68988 20.1124 5.72675 20.159 5.77299C20.2057 5.81924 20.2424 5.87393 20.2672 5.93395C20.2919 5.99396 20.3042 6.05812 20.3032 6.12273V8.3233C20.3042 8.38791 20.2919 8.45206 20.2672 8.51207C20.2424 8.57209 20.2057 8.62679 20.159 8.67303C20.1124 8.71927 20.0568 8.75615 19.9954 8.78154C19.934 8.80694 19.868 8.82036 19.8012 8.82102H18.4767C17.0447 8.82102 16.7664 9.50284 16.7664 10.4864V12.6699H19.914C19.9856 12.671 20.0562 12.6867 20.1212 12.7161C20.1861 12.7454 20.2439 12.7877 20.2908 12.8402C20.3377 12.8926 20.3726 12.9541 20.3933 13.0205C20.4139 13.0869 20.4199 13.1568 20.4107 13.2256Z" fill="#2B2A29"/>
</svg>
