<svg width="31" height="30" viewBox="0 0 31 30" fill="none" xmlns="http://www.w3.org/2000/svg">
<path d="M26.7727 0H4.22727C3.10613 0 2.03091 0.431005 1.23814 1.1982C0.445372 1.96539 0 3.00593 0 4.09091L0 25.9091C0 26.9941 0.445372 28.0346 1.23814 28.8018C2.03091 29.569 3.10613 30 4.22727 30H26.7727C27.8939 30 28.9691 29.569 29.7619 28.8018C30.5546 28.0346 31 26.9941 31 25.9091V4.09091C31 3.00593 30.5546 1.96539 29.7619 1.1982C28.9691 0.431005 27.8939 0 26.7727 0V0ZM10.5682 23.7409C10.5684 23.8241 10.5517 23.9065 10.5189 23.9834C10.4862 24.0604 10.4381 24.1303 10.3774 24.1892C10.3167 24.2481 10.2446 24.2948 10.1652 24.3267C10.0858 24.3586 10.0007 24.375 9.91472 24.375H7.13C7.04389 24.3752 6.95858 24.359 6.87898 24.3272C6.79938 24.2954 6.72706 24.2487 6.66617 24.1898C6.60528 24.1309 6.55702 24.0609 6.52418 23.9838C6.49133 23.9068 6.47454 23.8242 6.47477 23.7409V12.4432C6.47477 12.275 6.54381 12.1137 6.66668 11.9948C6.78956 11.8759 6.95622 11.8091 7.13 11.8091H9.91472C10.0882 11.8095 10.2544 11.8765 10.3769 11.9954C10.4994 12.1143 10.5682 12.2753 10.5682 12.4432V23.7409ZM8.52148 10.7386C7.99893 10.7386 7.48812 10.5887 7.05364 10.3077C6.61915 10.0268 6.28052 9.62747 6.08055 9.16027C5.88058 8.69307 5.82825 8.17898 5.9302 7.68301C6.03214 7.18703 6.28377 6.73145 6.65327 6.37387C7.02277 6.0163 7.49353 5.77278 8.00604 5.67413C8.51855 5.57547 9.04977 5.62611 9.53254 5.81963C10.0153 6.01315 10.4279 6.34086 10.7183 6.76133C11.0086 7.18179 11.1635 7.67613 11.1635 8.18182C11.1635 8.85993 10.8852 9.51027 10.3897 9.98976C9.89421 10.4693 9.22219 10.7386 8.52148 10.7386ZM25.1241 23.7852C25.1243 23.8618 25.1089 23.9378 25.0787 24.0086C25.0485 24.0794 25.0042 24.1438 24.9482 24.1979C24.8922 24.2521 24.8257 24.295 24.7525 24.3243C24.6793 24.3535 24.6009 24.3684 24.5217 24.3682H21.5274C21.4482 24.3684 21.3698 24.3535 21.2966 24.3243C21.2234 24.295 21.1569 24.2521 21.1009 24.1979C21.0449 24.1438 21.0006 24.0794 20.9704 24.0086C20.9402 23.9378 20.9248 23.8618 20.925 23.7852V18.4926C20.925 17.7017 21.1645 15.029 18.7885 15.029C16.9478 15.029 16.5727 16.858 16.4987 17.6795V23.792C16.4987 23.9452 16.4365 24.0922 16.3254 24.2013C16.2143 24.3104 16.0633 24.3728 15.9051 24.375H13.013C12.9339 24.375 12.8557 24.3599 12.7827 24.3306C12.7097 24.3013 12.6434 24.2583 12.5876 24.2042C12.5318 24.15 12.4876 24.0857 12.4575 24.015C12.4275 23.9443 12.4121 23.8685 12.4123 23.792V12.3938C12.4121 12.3173 12.4275 12.2415 12.4575 12.1708C12.4876 12.1001 12.5318 12.0358 12.5876 11.9816C12.6434 11.9275 12.7097 11.8845 12.7827 11.8552C12.8557 11.8259 12.9339 11.8108 13.013 11.8108H15.9051C16.0649 11.8108 16.2181 11.8722 16.3311 11.9815C16.444 12.0909 16.5075 12.2391 16.5075 12.3938V13.379C17.1909 12.3852 18.2037 11.6216 20.3649 11.6216C25.1523 11.6216 25.1206 15.9477 25.1206 18.3239L25.1241 23.7852Z" fill="#2B2A29"/>
</svg>
