<svg width="205" height="19" viewBox="0 0 205 19" fill="none" xmlns="http://www.w3.org/2000/svg">
<path d="M48.2649 3.54697L47.7646 6.01682H50.8911L49.1872 14.4894H51.8915L53.5954 6.01682H56.7062L57.1908 3.54697H48.2649Z" fill="#DDDDDD"/>
<path d="M65.4 14.4894L63.4773 3.54697H60.6635L54.3169 14.4894H57.3026L58.2562 12.7386H62.555L62.8364 14.4894H65.4ZM62.3049 10.8002H59.1941L61.6483 6.39199L62.3049 10.8002Z" fill="#DDDDDD"/>
<path d="M72.0668 7.8614L70.3629 11.2067L69.9721 7.8614L69.3468 3.54697H66.6269L68.4246 14.4894H71.2071L77.3348 3.54697H74.4116L72.0668 7.8614Z" fill="#DDDDDD"/>
<path d="M86.5251 7.50187C86.994 5.1727 85.5715 3.54697 83.1329 3.54697H78.6465L76.4581 14.4894H79.178L79.8815 10.9565H81.2884L82.6171 14.4894H85.4621L83.9145 10.6126C85.2901 10.0811 86.2281 9.00254 86.5251 7.50187ZM83.8833 7.34555C83.6801 8.34599 82.9297 8.92438 81.8511 8.92438H80.2566L80.8819 5.75108H82.4764C83.5706 5.75108 84.0709 6.3451 83.8833 7.34555Z" fill="#DDDDDD"/>
<path d="M89.6339 14.4894L91.8224 3.54697H89.1493L86.9608 14.4894H89.6339Z" fill="#DDDDDD"/>
<path d="M102.007 14.4894L100.084 3.54697H97.2705L90.9239 14.4894H93.9096L94.8632 12.7386H99.162L99.4434 14.4894H102.007ZM98.9119 10.8002H95.8011L98.2553 6.39199L98.9119 10.8002Z" fill="#DDDDDD"/>
<path d="M105.514 3.54697L103.326 14.4894H106.046L106.671 11.3942H108.359C110.97 11.3942 112.752 10.0343 113.221 7.70508C113.721 5.21959 112.314 3.54697 109.719 3.54697H105.514ZM110.563 7.50187C110.36 8.56484 109.563 9.17449 108.406 9.17449H107.077L107.734 5.82924H109.078C110.235 5.82924 110.782 6.43889 110.563 7.50187Z" fill="#DDDDDD"/>
<path d="M123.3 7.50187C123.769 5.1727 122.346 3.54697 119.908 3.54697H115.421L113.233 14.4894H115.953L116.656 10.9565H118.063L119.392 14.4894H122.237L120.689 10.6126C122.065 10.0811 123.003 9.00254 123.3 7.50187ZM120.658 7.34555C120.455 8.34599 119.705 8.92438 118.626 8.92438H117.032L117.657 5.75108H119.251C120.346 5.75108 120.846 6.3451 120.658 7.34555Z" fill="#DDDDDD"/>
<path d="M128.853 14.6926C132.104 14.6926 134.84 12.4416 135.481 9.23702C136.153 5.87614 134.105 3.34375 130.76 3.34375C127.508 3.34375 124.757 5.59476 124.132 8.79932C123.459 12.1602 125.507 14.6926 128.853 14.6926ZM129.103 12.2384C127.399 12.2384 126.476 10.9409 126.836 9.0807C127.211 7.15796 128.759 5.79798 130.494 5.79798C132.213 5.79798 133.151 7.09543 132.776 8.95564C132.401 10.8784 130.853 12.2384 129.103 12.2384Z" fill="#DDDDDD"/>
<path d="M142.948 8.17404L140.54 3.54697H138.289L136.101 14.4894H138.805L140.15 7.79887L141.885 11.2848H143.088L146.152 7.93956L144.855 14.4894H147.544L149.732 3.54697H147.293L142.948 8.17404Z" fill="#DDDDDD"/>
<path d="M152.703 14.5894C154.751 14.5894 156.142 13.7297 156.439 12.1977C156.72 10.8377 155.939 9.93108 154.063 9.46212C153.109 9.21201 152.859 9.02442 152.922 8.63362C152.984 8.32098 153.297 8.16466 153.906 8.16466C154.641 8.16466 155.532 8.46167 156.079 8.85247L157.267 7.21111C156.329 6.5702 155.173 6.22629 153.985 6.22629C152.109 6.22629 150.858 7.05479 150.561 8.53983C150.295 9.91545 151.046 10.8377 152.89 11.2754C153.828 11.4943 154.094 11.6975 154.031 12.057C153.969 12.4009 153.578 12.5885 152.89 12.5885C152.015 12.5885 151.202 12.3384 150.436 11.7913L149.232 13.5264C150.108 14.183 151.358 14.5894 152.703 14.5894Z" fill="#FF3600"/>
<path d="M165.805 11.3223C166.805 8.57109 165.289 6.16376 162.444 6.16376C160.099 6.16376 158.223 7.75823 157.738 10.2281C157.207 12.9324 158.676 14.6363 161.537 14.6363C162.85 14.6363 164.038 14.2768 165.117 13.5264L164.445 11.9163C163.647 12.4166 162.741 12.6979 161.85 12.6979C160.677 12.6979 160.021 12.2134 159.958 11.3223H165.805ZM160.255 9.6966C160.646 8.72741 161.459 8.11777 162.397 8.11777C163.335 8.11777 163.851 8.72741 163.866 9.6966H160.255Z" fill="#FF3600"/>
<path d="M173.005 6.25756C171.989 6.25756 171.191 6.64836 170.472 7.55501L170.691 6.36698H168.362L166.752 14.4331H169.316L169.972 11.1816C170.285 9.60281 171.066 8.74305 172.223 8.74305C172.567 8.74305 172.88 8.82121 173.239 8.96189L174.271 6.50767C173.896 6.35135 173.474 6.25756 173.005 6.25756Z" fill="#FF3600"/>
<path d="M178.82 9.82166L177.976 11.4318L177.773 9.82166L177.272 6.36698H174.693L176.256 14.4331H178.742L183.51 6.36698H180.696L178.82 9.82166Z" fill="#FF3600"/>
<path d="M186.213 5.46032C187.072 5.46032 187.791 4.86631 187.948 4.02218C188.135 3.08426 187.573 2.47461 186.682 2.47461C185.822 2.47461 185.103 3.05299 184.946 3.89712C184.774 4.83504 185.337 5.46032 186.213 5.46032ZM185.65 14.4331L187.26 6.36698H184.696L183.086 14.4331H185.65Z" fill="#FF3600"/>
<path d="M191.574 14.6363C192.996 14.6363 194.31 14.0892 195.232 13.1356L194.091 11.5099C193.512 12.1039 192.715 12.4478 191.965 12.4478C190.808 12.4478 190.245 11.635 190.48 10.4157C190.73 9.19638 191.652 8.35225 192.778 8.35225C193.434 8.35225 194.059 8.64925 194.45 9.13385L196.06 7.60191C195.435 6.71089 194.247 6.16376 192.84 6.16376C190.417 6.16376 188.51 7.80513 188.025 10.2437C187.51 12.8074 188.932 14.6363 191.574 14.6363Z" fill="#FF3600"/>
<path d="M204.335 11.3223C205.335 8.57109 203.819 6.16376 200.974 6.16376C198.629 6.16376 196.753 7.75823 196.269 10.2281C195.737 12.9324 197.207 14.6363 200.067 14.6363C201.381 14.6363 202.569 14.2768 203.647 13.5264L202.975 11.9163C202.178 12.4166 201.271 12.6979 200.38 12.6979C199.208 12.6979 198.551 12.2134 198.489 11.3223H204.335ZM198.786 9.6966C199.176 8.72741 199.989 8.11777 200.927 8.11777C201.865 8.11777 202.381 8.72741 202.397 9.6966H198.786Z" fill="#FF3600"/>
<path d="M6.80852 17.3942L10.1521 1H43.7756L40.432 17.3942H6.80852Z" fill="#FF3600" stroke="#FF3600" stroke-width="2"/>
<path d="M5.91212 0H7.88289L4.15146 18.3942H2.18067L5.91212 0Z" fill="#DDDDDD"/>
<path d="M3.73144 0H4.71683L0.985399 18.3942H2.19276e-06L3.73144 0Z" fill="#DDDDDD"/>
<path d="M11.9901 3.75222L11.4961 6.19142H14.5837L12.901 14.5588H15.5717L17.2545 6.19142H20.3266L20.8052 3.75222H11.9901Z" fill="white"/>
<path d="M22.2298 3.75222L20.0685 14.5588H22.7547L23.3722 11.5021H25.0395C27.6177 11.5021 29.3776 10.159 29.8408 7.85872C30.3348 5.40409 28.9454 3.75222 26.3827 3.75222H22.2298ZM27.2163 7.65803C27.0156 8.70781 26.2283 9.30989 25.0859 9.30989H23.7736L24.422 6.00617H25.7497C26.8921 6.00617 27.4324 6.60825 27.2163 7.65803Z" fill="white"/>
<path d="M33.701 14.6977C36.1865 14.6977 37.8229 13.6171 38.2089 11.6873C38.5794 9.8811 37.6068 8.67694 35.2911 7.98223C33.8554 7.54996 33.4848 7.2412 33.5929 6.63912C33.701 6.11423 34.2413 5.83635 35.1058 5.83635C36.1247 5.83635 37.19 6.19142 37.8229 6.73175L39.2432 4.91007C38.1934 4.06098 36.8812 3.61328 35.2602 3.61328C32.9445 3.61328 31.4007 4.63219 31.0302 6.51562C30.6751 8.27555 31.586 9.44883 33.7936 10.0818C35.2293 10.4986 35.7079 10.9 35.5844 11.5484C35.4764 12.1196 34.8588 12.4284 33.809 12.4284C32.6512 12.4284 31.6323 12.0579 30.7215 11.3014L29.3166 13.2003C30.3973 14.1729 31.9256 14.6977 33.701 14.6977Z" fill="white"/>
</svg>
