<svg width="13" height="13" viewBox="0 0 13 13" fill="none" xmlns="http://www.w3.org/2000/svg">
<path d="M12.9768 11.6543L11.8253 6.96158C11.7389 6.64492 11.4222 6.44337 11.1055 6.50097C11.1055 6.50097 8.80236 6.96158 8.74478 6.96158C8.31294 7.76768 7.85231 8.545 7.42047 9.26473C7.21894 9.58142 6.87347 9.78294 6.49923 9.78294C6.12496 9.78294 5.77949 9.58142 5.57796 9.26473C4.9158 8.17073 4.19607 6.904 3.64907 5.72363L1.54743 6.55853C1.3747 6.64492 1.23075 6.78884 1.17317 6.99039L0.0215921 11.6255C-0.0359869 11.827 0.0215921 12.0573 0.194329 12.23C0.338276 12.374 0.568592 12.4316 0.798908 12.374L4.05212 11.5103C4.16728 11.4815 4.28244 11.4815 4.39759 11.5103L8.57207 12.8634C8.65844 12.8922 8.7448 12.8922 8.85996 12.8922L12.4586 12.4316C12.6314 12.4028 12.8041 12.3164 12.8905 12.1725C12.9769 12.0285 13.0344 11.827 12.9768 11.6543Z" fill="white"/>
<path d="M6.49908 8.94773C6.58545 8.94773 6.64303 8.89015 6.70059 8.83257C7.36274 7.76736 9.378 4.31263 9.378 2.98832C9.378 1.4049 8.08248 0.109375 6.49906 0.109375C4.91564 0.109375 3.62012 1.4049 3.62012 2.98832C3.62012 4.31263 5.63538 7.76736 6.29753 8.83257C6.35514 8.89015 6.44148 8.94773 6.49908 8.94773ZM5.08838 2.95953C5.08838 2.211 5.69296 1.57764 6.47027 1.57764C7.2188 1.57764 7.85216 2.18221 7.85216 2.95953C7.85216 3.70805 7.24759 4.34142 6.47027 4.34142C5.69296 4.34142 5.08838 3.73684 5.08838 2.95953Z" fill="white"/>
</svg>
