<svg width="31" height="30" viewBox="0 0 31 30" fill="none" xmlns="http://www.w3.org/2000/svg">
<path d="M20.8595 9.81276L20.8207 9.77526C19.5541 8.54907 17.8769 7.80048 16.0908 7.66416C14.3048 7.52783 12.527 8.0127 11.0774 9.03156C9.62779 10.0504 8.6014 11.5364 8.18284 13.2222C7.76428 14.9081 7.98104 16.6831 8.79411 18.2281L9.12525 18.8588L8.50877 21.7565L8.49996 21.794L11.4749 21.1122L12.153 21.4446C13.564 22.1229 15.1592 22.3562 16.7143 22.1116C18.2694 21.867 19.7061 21.1568 20.8225 20.0809C22.2267 18.7219 23.0187 16.8807 23.026 14.9588C23.0332 13.037 22.2551 11.1902 20.8612 9.82128L20.8595 9.81276ZM20.5565 17.9469C20.1919 18.5025 19.6159 19.1809 18.892 19.3497C17.6238 19.648 15.6775 19.3599 13.2556 17.1764L13.2257 17.1491C11.0962 15.24 10.5431 13.6497 10.677 12.3883C10.751 11.6707 11.3675 11.0247 11.8871 10.6003C11.9694 10.5328 12.0668 10.4848 12.1716 10.4601C12.2764 10.4354 12.3857 10.4346 12.4909 10.458C12.596 10.4813 12.6941 10.528 12.7773 10.5944C12.8605 10.6609 12.9266 10.7451 12.9703 10.8406L13.7541 12.5554C13.8054 12.6658 13.8245 12.7877 13.8093 12.9079C13.7941 13.0281 13.7452 13.142 13.6678 13.2372L13.2715 13.7349C13.1885 13.837 13.1384 13.9604 13.1275 14.0899C13.1165 14.2193 13.1451 14.349 13.2098 14.4628C13.4318 14.8378 13.9637 15.3917 14.5538 15.9065C15.216 16.4844 15.9505 17.0145 16.4155 17.1969C16.5402 17.2451 16.677 17.2565 16.8083 17.2295C16.9397 17.2025 17.0599 17.1383 17.1535 17.0451L17.6133 16.5969C17.702 16.5122 17.8123 16.4518 17.9329 16.4219C18.0536 16.3919 18.1803 16.3935 18.3002 16.4264L20.162 16.9378C20.2649 16.9682 20.3593 17.021 20.4379 17.0922C20.5164 17.1635 20.5771 17.2511 20.6152 17.3486C20.6533 17.446 20.6678 17.5506 20.6576 17.6543C20.6475 17.758 20.6129 17.8581 20.5565 17.9469V17.9469Z" fill="#2B2A29"/>
<path d="M26.7727 0H4.22727C3.10613 0 2.03091 0.431005 1.23814 1.1982C0.445372 1.96539 0 3.00593 0 4.09091L0 25.9091C0 26.9941 0.445372 28.0346 1.23814 28.8018C2.03091 29.569 3.10613 30 4.22727 30H26.7727C27.8939 30 28.9691 29.569 29.7619 28.8018C30.5546 28.0346 31 26.9941 31 25.9091V4.09091C31 3.00593 30.5546 1.96539 29.7619 1.1982C28.9691 0.431005 27.8939 0 26.7727 0V0ZM25.1047 15.2216C25.0527 16.7789 24.5974 18.2985 23.7804 19.6411C22.9635 20.9837 21.8111 22.1062 20.4292 22.9056C19.0472 23.7049 17.4799 24.1555 15.8711 24.216C14.2623 24.2765 12.6635 23.9449 11.2216 23.2517L6.36909 24.3648C6.29554 24.3814 6.21854 24.3761 6.14814 24.3496C6.07775 24.3232 6.01725 24.2768 5.97454 24.2165C5.94572 24.1765 5.92569 24.1312 5.9157 24.0834C5.9057 24.0356 5.90594 23.9863 5.91642 23.9386L6.93625 19.1472C6.27105 17.8831 5.91347 16.4885 5.89086 15.0702C5.86825 13.6518 6.18122 12.2472 6.80582 10.9639C7.43042 9.68062 8.35009 8.55259 9.49447 7.66616C10.6388 6.77972 11.9776 6.15837 13.4083 5.84966C14.839 5.54094 16.3237 5.55303 17.7488 5.88502C19.1739 6.217 20.5016 6.86007 21.6304 7.76503C22.7592 8.66998 23.6591 9.81283 24.2613 11.1061C24.8635 12.3994 25.152 13.8089 25.1047 15.2267V15.2216Z" fill="#2B2A29"/>
</svg>
