<svg width="30" height="30" viewBox="0 0 30 30" fill="none" xmlns="http://www.w3.org/2000/svg">
<path d="M25.9091 0H4.09091C3.00593 0 1.96539 0.431005 1.1982 1.1982C0.431005 1.96539 0 3.00593 0 4.09091L0 25.9091C0 26.9941 0.431005 28.0346 1.1982 28.8018C1.96539 29.569 3.00593 30 4.09091 30H25.9091C26.9941 30 28.0346 29.569 28.8018 28.8018C29.569 28.0346 30 26.9941 30 25.9091V4.09091C30 3.00593 29.569 1.96539 28.8018 1.1982C28.0346 0.431005 26.9941 0 25.9091 0V0ZM20.8517 15.5795L9.54545 20.9659C9.47643 20.9999 9.39987 21.0156 9.32304 21.0117C9.24621 21.0078 9.17165 20.9844 9.10643 20.9435C9.04122 20.9027 8.9875 20.846 8.95038 20.7786C8.91326 20.7112 8.89396 20.6355 8.89432 20.5585V9.43807C8.89545 9.36177 8.91574 9.28699 8.95333 9.22058C8.99093 9.15418 9.04461 9.0983 9.10945 9.05807C9.17429 9.01785 9.2482 8.99457 9.32439 8.99038C9.40058 8.98619 9.47659 9.00122 9.54545 9.03409L20.8585 14.7682C20.9331 14.8069 20.9955 14.8655 21.0388 14.9374C21.0821 15.0094 21.1047 15.092 21.104 15.176C21.1033 15.26 21.0793 15.3421 21.0348 15.4134C20.9903 15.4846 20.9269 15.5421 20.8517 15.5795Z" fill="#2B2A29"/>
</svg>
